<?xml version="1.0" encoding="utf-8"?>
<!-- Generator: Adobe Illustrator 22.0.0, SVG Export Plug-In . SVG Version: 6.00 Build 0)  -->
<svg version="1.1" id="Layer_1" xmlns="http://www.w3.org/2000/svg" xmlns:xlink="http://www.w3.org/1999/xlink" x="0px" y="0px"
	 viewBox="0 0 100 100" style="enable-background:new 0 0 100 100;" xml:space="preserve">
<style type="text/css">
	.st0{fill:#E3C5C7;}
	.st1{fill:#66C2AB;}
	.st2{fill:#FFFFFF;}
	.st3{fill:#2D7770;}
	.st4{fill:#144D4C;}
	.st5{fill:#061E43;}
	.st6{fill:#FB886B;}
	.st7{fill:#933C81;}
	.st8{fill:#A96097;}
	.st9{opacity:0.26;fill:#CA85B8;}
	.st10{fill:#CA85B8;}
	.st11{fill:#6F355E;}
	.st12{fill:#FCA372;}
	.st13{fill:#070B3B;}
	.st14{fill:#419378;}
	.st15{fill:#071841;}
	.st16{fill:url(#SVGID_1_);}
	.st17{fill:#FDDB54;}
	.st18{fill:url(#SVGID_2_);}
	.st19{fill:url(#SVGID_3_);}
	.st20{fill:url(#SVGID_4_);}
	.st21{fill:#89D0AE;}
	.st22{fill:url(#SVGID_5_);}
	.st23{fill:#FE882A;}
	.st24{fill:#FEAB2D;}
	.st25{fill:#F81F4D;}
	.st26{fill:#FFD131;}
</style>
<g>
	<circle class="st0" cx="50" cy="50" r="49"/>
</g>
<g>
	<g>
		<path class="st1" d="M43.7,43.3c0,0,3.9-14-4.5-20.4C23.6,32.4,33,47.7,33,47.7L43.7,43.3z"/>
		<path class="st2" d="M39.2,22.9C39.1,23,39.1,23,39,23l-0.3,17.1l-7.9-7.1c0,0.1-0.1,0.2-0.1,0.3l8,7.2l-0.1,4.9l0.3-0.1l0.2-9.8
			v0l5.2-3.3c0-0.1,0-0.2-0.1-0.3l-5.1,3.3L39.3,23C39.3,23,39.2,23,39.2,22.9L39.2,22.9z"/>
	</g>
	<g>
		<path class="st3" d="M42,41.3c0,0-8-11.6-19.5-10.7c-4.2,11.5,7.8,18.1,7.8,18.1L43,50.1L42,41.3z"/>
		<path class="st4" d="M33.5,33.3l-1.2,6.3l-9.5-9.1c-0.1,0-0.2,0-0.2,0c0,0,0,0.1,0,0.1l5.1,4.9l-5.9,0.5c0,0.1,0,0.1,0,0.2l0,0.1
			l6.2-0.5l8.5,8.1L26,45.2c0.1,0.1,0.2,0.2,0.3,0.3l10.4-1.2l6,5.8l0.2,0l-0.1-0.3l-10.3-9.9l1.2-6.4
			C33.7,33.4,33.6,33.4,33.5,33.3z"/>
	</g>
	<g>
		<path class="st5" d="M37.8,46.8c0,0-11.5-3.6-16.6,2.8c5.6,15.6,25.8,9.6,25.8,9.6L37.8,46.8z"/>
		<g>
			<path class="st4" d="M21.3,49.5c0,0.1,0,0.1,0.1,0.2l15.9,3.6l-7,5.5c0.1,0,0.2,0.1,0.3,0.1l7-5.6l6.2,1.4l-0.3-0.4l-12.1-2.8
				L27.9,46c-0.1,0-0.2,0-0.3,0.1l3.5,5.5l-9.6-2.2C21.4,49.4,21.3,49.5,21.3,49.5L21.3,49.5z"/>
		</g>
	</g>
</g>
<g>
	<path class="st6" d="M50.1,24.4l-0.5-1.8c-0.1,0-0.1,0-0.2,0c-0.3,0-0.5-0.3-0.5-0.5c-0.1-0.1-0.2-0.2-0.2-0.3l-1.1,0.5
		c0,0,0.5,1.9,1.3,2.6c0.7,0.7,3.1,2.5,3.1,2.5l0.4-0.2L50.1,24.4z"/>
	<g>
		<path class="st6" d="M52.6,27.4c0,0,0.1,0.2,0.4,0.3c0.3,0.1,0.9,0.2,0.7,0.4c-0.3,0.1-0.7,0.2-0.7,0.2c-0.2,0-0.5-0.1-0.6-0.3
			L52,27.5c0,0,0-0.3,0-0.3l0.1,0C52.3,27.2,52.4,27.3,52.6,27.4z"/>
		<path class="st6" d="M52.6,27.5C52.6,27.5,52.6,27.5,52.6,27.5c0,0-0.1,0.1-0.1,0.1c-0.1,0-0.3-0.1-0.4-0.1c0-0.1,0.1-0.2,0.1-0.2
			l1,0.1c0,0,0,0.1-0.2,0.2C52.8,27.6,52.6,27.5,52.6,27.5z"/>
	</g>
</g>
<g>
	<ellipse class="st7" cx="60" cy="53.8" rx="25.8" ry="22.1"/>
	<path class="st7" d="M68.1,36c0.8-6.1,4.8-7.5,4.8-7.5l1.9,9.7C74.8,38.2,67.4,42.1,68.1,36z"/>
	<path class="st7" d="M81.4,46.6h6.8c2.2,2.4,1.9,5.9,1.4,8.3c-0.3,1.6-1.7,2.7-3.3,2.8l-6.4,0.2L81.4,46.6z"/>
	<path class="st7" d="M46.1,71.2v5.4c0,0.6,0.4,1,1,1h4.7c0.6,0,1-0.4,1-1v-6L46.1,71.2z"/>
	<path class="st7" d="M67.4,71.2v5.4c0,0.6,0.4,1,1,1h4.7c0.6,0,1-0.4,1-1v-6L67.4,71.2z"/>
	<g>
		<path class="st7" d="M28.9,40.7c0,2.1,1.7,3.8,3.7,3.8c1,1.6,3.2,2.1,5,1.6c0.9-0.3,1.7-0.8,2.3-1.6c0.5-0.7,0.7-1.6,0-2.2
			c-0.1-0.1-0.1,0.1,0,0.1c0.9,0.9-0.2,2.2-0.9,2.7c-0.6,0.5-1.3,0.8-2.1,0.9c-1.5,0.2-3.1-0.2-4-1.4c0-0.1-0.1-0.1-0.1-0.2
			c0.3,0,0.5,0,0.8-0.1c0.8-0.2,1.7-0.7,2-1.6c0.2-0.7-0.2-1.4-0.9-1.7c-0.9-0.4-1.8,0-2.2,0.9c-0.4,0.8-0.3,1.6,0.1,2.3
			c-1.9-0.1-3.5-1.6-3.5-3.6C29,40.7,28.9,40.6,28.9,40.7z M32.6,44.4c-0.4-0.7-0.5-1.7,0-2.4c0.5-0.7,1.4-1,2.1-0.5
			c1,0.6,0.6,1.7-0.1,2.3C34.1,44.2,33.3,44.3,32.6,44.4z"/>
		<path class="st7" d="M36.2,46.9c-1.6,0-3-0.7-3.9-1.8c-2.2-0.2-4-2.1-4-4.4v0c0-0.4,0.3-0.6,0.6-0.7c0,0,0,0,0,0
			c0.4,0,0.7,0.4,0.7,0.7c0,1.3,0.8,2.4,2,2.8c-0.1-0.6,0-1.3,0.3-1.8c0.6-1.2,1.9-1.7,3-1.2c1,0.4,1.5,1.4,1.2,2.4
			c-0.3,1-1.2,1.7-2.1,2c0.8,0.5,1.8,0.7,2.8,0.6c0.7-0.1,1.3-0.4,1.8-0.8c0.5-0.4,1-1,1-1.5c0-0.2,0-0.3-0.1-0.4
			c-0.2-0.2-0.3-0.5-0.2-0.7c0.1-0.2,0.2-0.4,0.4-0.5c0.2-0.1,0.5,0,0.6,0.2c0.9,0.9,0.6,2.1,0,3c-0.6,0.8-1.5,1.5-2.6,1.8
			C37.3,46.9,36.7,46.9,36.2,46.9z M34,41.8c-0.4,0-0.7,0.2-0.8,0.5c-0.3,0.4-0.3,0.9-0.1,1.5c0.5-0.1,0.9-0.2,1.3-0.5
			c0.3-0.2,0.5-0.6,0.5-0.9c0-0.1,0-0.3-0.3-0.4C34.3,41.8,34.1,41.8,34,41.8z M40.3,42.1C40.3,42.1,40.3,42.1,40.3,42.1
			C40.3,42.1,40.3,42.1,40.3,42.1z M29.5,40.7C29.5,40.7,29.5,40.7,29.5,40.7C29.5,40.7,29.5,40.7,29.5,40.7L29.5,40.7z"/>
	</g>
</g>
<path class="st2" d="M77.4,47.9c0,0.5-0.4,1-1,1c-0.5,0-1-0.4-1-1c0-0.5,0.4-1,1-1C77,46.9,77.4,47.4,77.4,47.9z"/>
<path class="st8" d="M65.8,33.9c-8.3-1.4-13.9,0.8-13.9,0.8l0.5,1.1c0,0,6.4-2.3,13.4-0.6L65.8,33.9z"/>
<path class="st9" d="M37.3,60.6c1.7,0.8,3.5,1.5,5.3,2.1c1.6,0.1,3.2,0.2,4.7,0.1c3.5-0.2,6.9-0.8,10.3-1.7c1.5-0.5,3-1.2,4.4-1.9
	c1.9-1.3,3.7-3,5.3-4.6c1.2-1.4,2.3-2.8,3.2-4.4c0.4-0.9,0.7-1.7,1-2.6c0.1-0.7,0.1-1.3,0.2-2c-0.1-0.7-0.2-1.4-0.4-2.1
	c-0.4-1.1-0.9-2.2-1.5-3.2c-1-1.3-1.7-2.7-2-4.3c0-0.8-0.1-1.6-0.1-2.4c0-0.3,0-0.5,0.1-0.8c-2.5-0.7-5.1-1-7.8-1
	c-14.2,0-25.8,9.9-25.8,22.1c0,1.9,0.3,3.7,0.8,5.5C35.7,59.7,36.5,60.2,37.3,60.6z"/>
<g>
	<g>
		<g>
			<polygon class="st5" points="32.6,78.8 44.3,38.3 43.6,38.3 32,78.8 			"/>
		</g>
		<g>
			<polygon class="st5" points="38.6,78.8 50.3,38.3 49.6,38.3 38,78.8 			"/>
		</g>
		<g>
			<polygon class="st5" points="40.6,48.8 40.6,49.4 46.8,49.4 46.9,48.8 			"/>
		</g>
		<g>
			<polygon class="st5" points="41.9,44.9 41.9,45.5 48.1,45.5 48.2,44.9 			"/>
		</g>
		<g>
			<polygon class="st5" points="42.9,41 42.9,41.6 49.2,41.6 49.3,41 			"/>
		</g>
		<g>
			<polygon class="st5" points="39.5,52.8 39.5,53.4 45.7,53.4 45.8,52.8 			"/>
		</g>
		<g>
			<polygon class="st5" points="38.4,56.8 38.4,57.4 44.6,57.4 44.7,56.8 			"/>
		</g>
		<g>
			<polygon class="st5" points="37.3,60.9 37,61.5 43.3,61.5 43.4,60.9 			"/>
		</g>
		<g>
			<polygon class="st5" points="36.1,65 35.9,65.6 42.1,65.6 42.2,65 			"/>
		</g>
		<g>
			<polygon class="st5" points="35,69.1 34.8,69.7 41,69.7 41.1,69.1 			"/>
		</g>
		<g>
			<polygon class="st5" points="34.1,73.2 33.9,73.8 40.1,73.8 40.2,73.2 			"/>
		</g>
	</g>
</g>
<ellipse transform="matrix(0.9981 -6.196384e-02 6.196384e-02 0.9981 -1.5637 3.6702)" class="st8" cx="58.4" cy="27" rx="7" ry="7"/>
<g>
	<g>
		<path class="st10" d="M54.1,32v-9.1h2.4l1.9,3.3c0.5,1,1.1,2.1,1.5,3.1h0c-0.1-1.2-0.2-2.4-0.2-3.8v-2.7h1.9V32h-2.2l-1.9-3.5
			c-0.5-1-1.1-2.1-1.6-3.2l0,0c0.1,1.2,0.1,2.5,0.1,4V32H54.1z"/>
	</g>
	<rect x="53.5" y="25.8" class="st10" width="9" height="1.1"/>
	<rect x="53.5" y="28.1" class="st10" width="9" height="1.1"/>
</g>
<g>
	<g>
		<path class="st11" d="M58.4,34.3c-4,0-7.3-3.3-7.3-7.3c0-4,3.3-7.3,7.3-7.3c4,0,7.3,3.3,7.3,7.3C65.7,31,62.4,34.3,58.4,34.3z
			 M58.4,20.3c-3.7,0-6.7,3-6.7,6.7c0,3.7,3,6.7,6.7,6.7c3.7,0,6.7-3,6.7-6.7C65.1,23.4,62.1,20.3,58.4,20.3z"/>
	</g>
</g>
<polygon class="st2" points="63.8,33 67.4,32.5 63.9,31.8 63.4,28.2 62.7,31.8 59.1,32.3 62.7,33 63.2,36.5 "/>
<g>
	<g>
		<polygon class="st6" points="48.3,19.9 48,20.6 47,20.2 47.8,19 		"/>
		<path class="st12" d="M49.5,18c0,0-0.2,1.9-0.6,2.1c-0.4,0.2-0.9-0.5-0.9-0.5l-0.5-1.1l1.5-0.7L49.5,18z"/>
		<path class="st13" d="M50.2,17.7c0,0-0.3,0.7-1.3,0.4c-0.3,0-0.4,0.3-0.5,0.5c-0.1,0.3-0.1,0.1-0.3,0.3l-0.4,0.6
			c0,0-0.9-1.7,0.3-2.2C49.2,16.7,50.2,17.7,50.2,17.7z"/>
		<path class="st12" d="M48.1,18.5c0.1,0,0.2,0,0.3,0.2c0,0.1,0,0.2-0.1,0.2c-0.1,0-0.2,0-0.3-0.2C48,18.6,48.1,18.5,48.1,18.5z"/>
	</g>
	<path class="st3" d="M46.6,20.1c-2.4,1.4-1.5,7.3-1.5,7.3h3.6c0,0,0-1.5,0.1-3.2c0-1.2,0.2-2.5-0.2-3.2
		C48.2,20.1,47.2,19.8,46.6,20.1z"/>
	<path class="st12" d="M47.9,23.9c0,0,0.5,1.9,1.3,2.5c0.7,0.6,2.8,2.3,2.8,2.3l0.7-0.1l-2.3-2.8l-0.8-2.7L47.9,23.9z"/>
	<polygon class="st3" points="47.7,24.1 49.7,23.3 48.7,21 47.4,21.7 	"/>
	<g>
		<path class="st13" d="M44.3,40.1c0,0,0.4,0.4,1.3,0.6c0.2,0.1,0.4,0,0.4,0.3c-0.4,0-1.1,0-1.1,0L44,40.9v0.2h-0.5
			c0,0-0.1-0.8,0.2-0.9C44,40.1,44.3,40.1,44.3,40.1z"/>
		<path class="st12" d="M44.2,39.6l0.1,0.6l0,0c-0.2,0.1-0.4,0.1-0.6,0l0,0l0-0.6H44.2z"/>
	</g>
	<path class="st13" d="M45.1,27.4c0,0-0.4,1.2-0.4,4.2c0,0.6-0.2,1.2-0.4,1.7c-1,2.2-0.6,6.4-0.6,6.4h0.7l2.9-10.3l-1-2H45.1z"/>
	<g>
		<path class="st13" d="M48.3,40.5c0,0,0.4,0.4,1.3,0.6c0.2,0.1,0.4,0,0.4,0.3c-0.4,0-1.1,0-1.1,0L48,41.3v0.2h-0.5
			c0,0-0.1-0.8,0.2-0.9C47.9,40.5,48.3,40.5,48.3,40.5z"/>
		<path class="st12" d="M48.2,39.9l0.1,0.6l0,0c-0.2,0.1-0.4,0.1-0.6,0l0,0l0-0.6H48.2z"/>
	</g>
	<path class="st12" d="M52,28.7l0.5,0.8c0.2,0.3,0.9,0.2,1.3,0c0.1,0,0.1-0.1,0-0.2c-0.3-0.2-1-0.7-1.3-0.8L52,28.7z"/>
	<path class="st5" d="M48.8,27.4l-0.4,12.7h-0.8c0,0-1.1-3.5-0.8-6c0.1-0.7,0-1.3-0.3-1.9c-1.1-2.6-1-4.8-1-4.8H48.8z"/>
</g>
<g>
	<g>
		<g>
			<path class="st13" d="M16.4,78.5c0,0,0.4,0.4,1.4,0.6c0.2,0.1,0.4,0,0.4,0.3c-0.5,0-1.2,0-1.2,0l-1-0.2v0.2h-0.5
				c0,0-0.1-0.9,0.2-1C16,78.5,16.4,78.5,16.4,78.5z"/>
			<path class="st12" d="M16.4,77.9l0.1,0.6l0,0c-0.2,0.1-0.5,0.1-0.7,0l0,0l-0.2-0.6H16.4z"/>
		</g>
		<g>
			<path class="st13" d="M13.5,78.5c0,0,0.4,0.4,1.4,0.6c0.2,0.1,0.4,0,0.4,0.3c-0.5,0-1.2,0-1.2,0l-1-0.2v0.2h-0.5
				c0,0-0.1-0.9,0.2-1C13.1,78.5,13.5,78.5,13.5,78.5z"/>
			<path class="st12" d="M13.4,77.9l0.1,0.6l0,0c-0.2,0.1-0.5,0.1-0.7,0l0,0l-0.2-0.6H13.4z"/>
		</g>
		<g>
			<polygon class="st6" points="14.5,57.2 14.3,58.2 13.4,57.8 13.7,56.6 			"/>
			<g>
				<path class="st12" d="M14.8,57.3c0.1,0,0.2,0,0.3-0.1c0.4-0.5-0.1-2-0.1-2L14.5,55l-0.7,0.5l0,1c0,0.3,0.1,0.5,0.3,0.7l0,0
					C14.3,57.2,14.5,57.3,14.8,57.3z"/>
			</g>
			<path class="st13" d="M13.9,55.7c0-0.2,0.2-0.3,0.4-0.2c0.1,0,0.3,0,0.4,0c0.3,0,0.7-0.1,0.7-0.6c0-0.5-0.6-0.3-0.6-0.3
				s-1.3,0.2-1.8,0.6c-0.2,0.2,0.2,0.7,0.3,1c0.1,0.2,0.2,0.3,0.3,0.4l0,0L13.9,55.7z"/>
			<path class="st12" d="M13.5,56.1c0.1-0.1,0.2-0.1,0.3,0c0.1,0.1,0.1,0.2,0,0.3c-0.1,0.1-0.2,0.1-0.3,0
				C13.5,56.2,13.4,56.1,13.5,56.1z"/>
		</g>
		<path class="st1" d="M14.3,58.2c0,0,1.4,2.3,2.2,7.5c-1.7,0.5-4.2,1.1-4.2,1.1s-1.5-5.7,1.1-9C13.9,57.8,14.3,58.2,14.3,58.2z"/>
		<path class="st13" d="M16.5,65.7c0,0,1.2,3.9,1.2,5.6c0,1.8-1.2,6.7-1.2,6.7h-1.1c0,0-0.2-3.5,0.1-5.4c0.1-0.6,0-1.2-0.1-1.7
			c-0.6-1.9-1.2-4.6-1.2-4.6L16.5,65.7z"/>
		<path class="st5" d="M15.7,66c0,0,0.3,4.2-0.2,5.7c-0.5,1.5-2.1,6.3-2.1,6.3h-0.9c0,0-0.2-2.6,0.5-5.4c0.2-0.7,0.2-1.4-0.1-2
			c-0.7-2.1-0.7-3.8-0.7-3.8L15.7,66z"/>
		<g>
			<path class="st12" d="M18.1,66.3c0,0,0.2,0.1,0.6,0.1c0.3,0,1-0.3,0.9,0.1C19.3,66.7,19,67,19,67c-0.2,0.1-0.6,0.1-0.8,0
				l-0.7-0.3c0,0-0.1-0.3-0.1-0.4l0.1-0.1C17.7,66.3,17.9,66.3,18.1,66.3z"/>
			<path class="st12" d="M18.2,66.5C18.2,66.5,18.2,66.5,18.2,66.5c0,0.1,0,0.1-0.1,0.1c-0.2,0-0.4,0.1-0.5,0.1c0-0.1,0-0.2,0-0.3
				l1.1-0.4c0,0,0.1,0.1-0.1,0.3C18.4,66.4,18.2,66.5,18.2,66.5z"/>
		</g>
		<path class="st1" d="M14.5,60l0.3,2.5c0.1,0.5,0.3,0.9,0.6,1.3l2.3,2.4l-0.2,0.6c0,0-3.4-1.6-4-2.6c-0.6-1-0.9-3.9-0.9-3.9
			L14.5,60z"/>
		<g>
			<path class="st14" d="M12.6,61.4c0.1,0.9,0.4,2.3,0.8,2.9c0.6,0.9,3.6,2.3,4,2.5l0.2-0.5l-2.2-2.4c-0.3-0.4-0.6-0.8-0.6-1.3
				l-0.1-1.1c0,0,0.1,0,0.1-0.1l0.1,1.2c0.1,0.5,0.3,0.9,0.6,1.3l2.3,2.4l0,0l-0.3,0.6l0,0c-0.1-0.1-3.4-1.6-4.1-2.6
				c-0.4-0.6-0.7-2-0.8-3C12.6,61.3,12.6,61.4,12.6,61.4z"/>
		</g>
	</g>
	<polygon class="st2" points="14.4,57.9 13.5,57.4 13.4,57.8 14.4,58.3 	"/>
</g>
<ellipse transform="matrix(0.9983 -5.852033e-02 5.852033e-02 0.9983 -3.4997 1.4143)" class="st8" cx="22.4" cy="60.5" rx="7" ry="7"/>
<g>
	<g>
		<path class="st11" d="M22.4,67.7c-4,0-7.3-3.3-7.3-7.3c0-4,3.3-7.3,7.3-7.3c4,0,7.3,3.3,7.3,7.3C29.7,64.5,26.4,67.7,22.4,67.7z
			 M22.4,53.8c-3.7,0-6.7,3-6.7,6.7c0,3.7,3,6.7,6.7,6.7c3.7,0,6.7-3,6.7-6.7C29.1,56.8,26.1,53.8,22.4,53.8z"/>
	</g>
</g>
<g>
	<g>
		<path class="st10" d="M18.5,64.5v-8.1h2.1l1.7,3c0.5,0.9,1,1.9,1.3,2.8h0c-0.1-1.1-0.2-2.2-0.2-3.4v-2.4h1.7v8.1h-1.9l-1.7-3.1
			c-0.5-0.9-1-1.9-1.4-2.9l0,0c0,1.1,0.1,2.2,0.1,3.5v2.4H18.5z"/>
	</g>
	<rect x="18" y="59" class="st10" width="8" height="1"/>
	<rect x="18" y="61" class="st10" width="8" height="1"/>
</g>
<g>
	<g>
		<path class="st15" d="M79.8,78.3l-1.9,0c-0.3,0-0.5,0.1-0.6,0.3c0,0,0,0.1,0,0.3c0.1,0.1,2.6,0,2.6,0l0,0
			C80.1,78.6,79.8,78.3,79.8,78.3z"/>
		<polygon class="st13" points="77.3,78.9 79.9,78.9 79.8,79 77.3,79 		"/>
		<g>
			<polygon class="st2" points="79,78.3 78.9,78.3 78.9,78.6 79.1,78.6 			"/>
		</g>
		<g>
			<polygon class="st2" points="78.7,78.3 78.5,78.3 78.5,78.6 78.7,78.6 			"/>
		</g>
		<path class="st12" d="M79.9,77.7l-0.1,0.6l0,0c-0.2,0.1-0.3,0.1-0.5,0l0,0l-0.1-0.6H79.9z"/>
	</g>
	<g>
		<path class="st13" d="M84.2,78.3l-1.9,0c-0.3,0-0.5,0.1-0.6,0.3c0,0,0,0.1,0,0.3c0.1,0.1,2.6,0,2.6,0l0,0
			C84.6,78.6,84.2,78.3,84.2,78.3z"/>
		<polygon class="st13" points="81.7,78.9 84.3,78.9 84.3,79 81.7,79 		"/>
		<g>
			<polygon class="st2" points="83.5,78.3 83.3,78.3 83.3,78.6 83.5,78.6 			"/>
		</g>
		<g>
			<polygon class="st2" points="83.1,78.3 82.9,78.3 83,78.6 83.1,78.6 			"/>
		</g>
		<path class="st12" d="M84.1,77.7l0.1,0.6l0,0c-0.2,0.1-0.3,0.1-0.5,0l0,0l-0.3-0.6H84.1z"/>
	</g>
	<g>
		<path class="st12" d="M81.3,56.5l1.6,1l-0.5,1.2c0,0,0,0,0,0.1c0,0-0.1,0-0.1,0c0,0,0,0,0,0c0,0,0,0,0,0c-0.4,0-0.8,0.3-1,0.6
			c-0.3,0-0.5-0.1-0.7-0.2c-0.2-0.1-0.3-0.2-0.3-0.3C80,58,81.3,56.5,81.3,56.5z"/>
	</g>
	<path class="st12" d="M79.3,56.8c0,0-0.2,1.8,0.2,3c-0.2,0.2-0.8,0.9-1-0.1c-0.2-0.9,0.2-3.2,0.2-3.2L79.3,56.8z"/>
	<g>
		<g>
			<polygon class="st13" points="80.3,56.7 80.6,56.9 80.5,57.2 80.1,57 			"/>
			<path class="st13" d="M80.5,57c0,0.1,0,0.2,0,0.2c0,0,0.1,0,0.1-0.1c0-0.1,0-0.2,0-0.2C80.6,56.9,80.5,56.9,80.5,57z"/>
		</g>
		<path class="st5" d="M75.8,55.3C75.8,55.3,75.8,55.3,75.8,55.3c0.1-0.2,0.2-0.4,0.4-0.6c0.3-0.4,0.3-0.6,0.3-0.6l3.8,2.5l-0.2,0.5
			l-4.2-1.6C75.8,55.4,75.8,55.4,75.8,55.3z"/>
	</g>
	<polygon class="st6" points="81.6,59.4 81.8,60.2 80.6,60.2 80.5,59.2 	"/>
	<path class="st12" d="M78.5,61.5c0,0-1.4-0.5-1.9-1.1c-0.4-0.6,0.3-4,0.3-4l-0.1-0.6c-0.1-0.3,0.2-0.6,0.5-0.6l0.4,0
		c0.2,0,0.3,0.2,0.2,0.3l-0.5,1.1c0,0-0.4,2.5,0.2,2.7c0.6,0.2,1.3,0.3,1.3,0.3L78.5,61.5z"/>
	<path class="st15" d="M81.2,59.4l0.4-0.8l-0.2-0.1c-0.2-0.1-0.3-0.3-0.2-0.5l0.3-0.8c0,0-0.7-0.1-0.7-0.8c0-0.4,0.5-0.4,0.5-0.4
		s0.1,0.3,0.6,0.4c0.2,0,0.7,0,1.1,0.7c0.2,0.4,0.1,1.1-0.1,1.6c-0.2,0.4-0.7,0.7-1.2,0.8H81.2z"/>
	<path class="st13" d="M82.7,66.2c0,0-0.1,1.7-0.5,3.6c-0.1,0.6-0.1,1.1,0.1,1.7c0.9,2.5,2,6.3,2,6.3h-1.1c0,0-2.4-4.5-3-6.7
		c-0.6-2.2-0.7-2.9-0.7-2.9l0.7-1.9H82.7z"/>
	<path class="st12" d="M81.8,58.2c0,0.1,0,0.3-0.2,0.4c-0.2,0.1-0.3,0-0.4-0.1c0-0.1,0-0.3,0.2-0.4C81.6,58,81.7,58.1,81.8,58.2z"/>
	<linearGradient id="SVGID_1_" gradientUnits="userSpaceOnUse" x1="77.4673" y1="62.9052" x2="82.6562" y2="62.9052">
		<stop  offset="0" style="stop-color:#D8F0DD"/>
		<stop  offset="1" style="stop-color:#B5E3DF"/>
	</linearGradient>
	<path class="st16" d="M79.2,66.2h3.5v-4.4c0-1-0.7-1.8-1.7-1.9l-2.4-0.3c0,0-0.3,0.4-1.1,1.4c0.9,0.6,2,0.9,2,0.9L79.2,66.2z"/>
	<path class="st5" d="M82.7,66.2c0,0-0.5,1.8-2.3,3.8c-0.3,0.3-0.7,0.9-0.7,1.8l0.4,6.1H79c0,0-1.3-5-1-7.5c0.3-2.5,1.2-4.1,1.2-4.1
		H82.7z"/>
	<path class="st2" d="M76.4,54.9c-0.2,0.4-0.4,0.7-0.6,0.6c-0.1-0.1-0.1-0.4,0.1-0.8c0.2-0.4,0.4-0.7,0.6-0.6
		C76.6,54.2,76.6,54.5,76.4,54.9z"/>
	<path class="st12" d="M79.5,56.1L79.5,56.1c-0.1,0.1-0.3,0.1-0.4,0l0,0c-0.2-0.1-0.3-0.2-0.4-0.4l0,0c0-0.1,0-0.2,0.1-0.2l0.2,0.1
		c0.1,0,0.2,0.1,0.2,0.2L79.5,56.1z"/>
</g>
<g>
	<polygon class="st12" points="62.9,59.7 61.8,61.7 63,61.7 63,59.6 	"/>
	<polygon class="st2" points="64.5,58.8 63.5,58.8 63.1,65.2 64.9,65.2 	"/>
	<g>
		<path class="st5" d="M66.4,77.6c0,0,0.2,0.2,0.2,0.4c0,0.2-0.1,0.8-0.1,0.8h-0.3l0-0.5c0,0-0.5,0.5-0.6,0.5h-1.3
			c0,0-0.1-0.4,0.7-0.5C65.7,78.3,66.4,77.6,66.4,77.6z"/>
		<g>
			<path class="st12" d="M65.8,77.3l-0.2,0.5c0,0.1-0.1,0.2-0.2,0.3c-0.1,0.1-0.3,0.2-0.6,0.3c0.4,0.3,0.9,0,1.3-0.2
				c0.2-0.1,0.3-0.3,0.3-0.5l0.1-0.4H65.8z"/>
		</g>
	</g>
	<g>
		<path class="st5" d="M63.8,77.6c0,0,0.2,0.2,0.2,0.4c0,0.2-0.1,0.8-0.1,0.8h-0.3l0-0.5c0,0-0.5,0.5-0.6,0.5h-1.3
			c0,0-0.1-0.4,0.7-0.5C63.2,78.3,63.8,77.6,63.8,77.6z"/>
		<g>
			<path class="st12" d="M63.2,77.3l-0.2,0.5c0,0.1-0.1,0.2-0.2,0.3c-0.1,0.1-0.3,0.2-0.6,0.3c0.4,0.3,0.9,0,1.3-0.2
				c0.2-0.1,0.3-0.3,0.3-0.5l0.1-0.4H63.2z"/>
		</g>
	</g>
	<path class="st3" d="M65.3,65.2c0,0,0.2,1-0.8,5.7c0.8,2.4-0.5,6.5-0.5,6.5h-0.9l-0.6-12.2H65.3z"/>
	<path class="st17" d="M63.7,58.8l-0.3,7.8l-1.1-0.5c0,0,0.5-1.5,0.4-3.5c0.2-1.5-0.7-0.7,0.3-3.5C63.4,58.8,63.7,58.8,63.7,58.8z"
		/>
	<path class="st6" d="M63.5,58l0.1,0.7c0.1,0.3,0.4,0.4,0.6,0.3l0.4-0.3l-0.8-1.8L63.5,58z"/>
	<path class="st1" d="M66.2,65.2c0,0,1.2,1,0.2,5.7c0.8,2.4,0.1,6.5,0.1,6.5h-0.8l-2.3-12.2H66.2z"/>
	<path class="st17" d="M64.5,58.2c0,0,1,0.6,1.3,1.1c0.3,0.5,0.4,1.6,0.4,2.5c0,1.3,0.7,4.8,0.7,4.8h-2.7L64.2,59L64.5,58.2z"/>
	<path class="st13" d="M62.6,56c0.6-0.2,1.2,0.5,1.2,0.5l0.5,2.5l0.7-1.1c0,0,0-1.5-0.6-2.4c-0.5-0.6-1.4-0.4-1.9,0.2
		c-0.2,0.3-0.3,0.7-0.3,1c0,0.5,0.2,3.2,0.2,3.2l1.4-1c0,0,0-0.3-0.2-0.8C63.3,57.1,62.2,56.1,62.6,56z"/>
	<path class="st12" d="M63.9,56.5c-0.1,0-0.2,0-0.3,0.1c-0.1,0.1,0,0.2,0.1,0.3c0.1,0,0.2,0,0.3-0.1C64,56.6,64,56.5,63.9,56.5z"/>
	<g>
		<path class="st12" d="M63.3,58.1c-0.1,0-0.2,0.1-0.3,0c-0.5-0.4-0.7-1.9-0.7-1.9l0.4-0.4l0.8,0.2l0.4,0.9c0.1,0.2,0.1,0.5,0,0.8
			l0,0C63.7,57.9,63.5,58,63.3,58.1z"/>
	</g>
	<path class="st13" d="M62.4,56c0,0.5,1.3,0.5,1.3,0.5l0.1-0.6l-0.7-0.4l-0.6,0.4C62.5,55.8,62.4,55.9,62.4,56z"/>
	<path class="st13" d="M62.4,56.1c0,0.2-0.1,0.5-0.1,0.5l-0.1-0.2l0-0.2l0.1-0.1C62.3,56.1,62.4,55.9,62.4,56.1z"/>
	<path class="st12" d="M65.6,59.2c1.3,0.2,0.7,3.5,0.4,4.9c-0.1,0.3-0.4,0.5-0.7,0.4c-1.1-0.4-2.8-1.8-2.8-1.8l0.3-0.3l2.2,0.5
		C64.9,62.9,64.1,59,65.6,59.2z"/>
	<path class="st2" d="M63,61.6l0.4,2.6c0,0.1,0,0.1-0.1,0.1h-1.7c-0.1,0-0.1,0-0.1-0.1l-0.4-2.6c0-0.1,0-0.1,0.1-0.1h1.7
		C62.9,61.5,63,61.5,63,61.6z"/>
	<g>
		<path class="st12" d="M61.1,62.7c0-0.1,0-0.1,0-0.3c0-0.2,0-0.6,0.3-0.4c0.2,0.3,0.3,0.6,0.3,0.6c0,0.2-0.1,0.4-0.2,0.6l-0.2,0.4
			C61.4,63.5,61.1,63.2,61.1,62.7z"/>
	</g>
	
		<linearGradient id="SVGID_2_" gradientUnits="userSpaceOnUse" x1="114.6639" y1="62.4897" x2="114.9196" y2="62.4897" gradientTransform="matrix(-1 0 0 1 176.8764 0)">
		<stop  offset="0" style="stop-color:#D8F0DD"/>
		<stop  offset="1" style="stop-color:#B5E3DF"/>
	</linearGradient>
	<path class="st18" d="M62.2,62.5c0,0.1-0.1,0.1-0.1,0.1c-0.1,0-0.1-0.1-0.1-0.1s0.1-0.1,0.1-0.1C62.2,62.4,62.2,62.4,62.2,62.5z"/>
</g>
<g>
	<g>
		<path class="st13" d="M51.1,78.2c0,0-0.2,0.2-1,0.4c-0.2,0-0.4,0.1-0.4,0.4c0.4,0,0.8,0,0.8,0l0.8-0.1V79h0.4c0,0,0.1-0.7-0.1-0.8
			C51.4,78.2,51.1,78.2,51.1,78.2z"/>
		<path class="st12" d="M51,77.7l0,0.5l0,0c0.2,0.1,0.4,0.1,0.5,0l0,0v-0.5H51z"/>
	</g>
	<g>
		<path class="st13" d="M55.1,78.3c0,0-0.2,0.2-1,0.4c-0.2,0-0.4,0.1-0.4,0.4c0.4,0,0.8,0,0.8,0l0.8-0.1v0.1h0.4
			c0,0,0.1-0.7-0.1-0.8C55.4,78.3,55.1,78.3,55.1,78.3z"/>
		<path class="st12" d="M55.1,77.8l0,0.5l0,0c0.2,0.1,0.4,0.1,0.5,0l0,0v-0.5H55.1z"/>
	</g>
	<path class="st13" d="M50.7,65.1l0.2,12.8h0.9c0,0,1.4-10.4,1.1-12.8C52.6,62.6,50.7,65.1,50.7,65.1z"/>
	<path class="st15" d="M51.7,65.1c0,0,0.3,3.9,1.1,6.1c0.7,2.2,2.1,6.7,2.1,6.7h1c0,0-1.6-9.5-1.2-12.8l0,0H51.7z"/>
	
		<linearGradient id="SVGID_3_" gradientUnits="userSpaceOnUse" x1="-403.7958" y1="61.092" x2="-400.3388" y2="61.092" gradientTransform="matrix(1 0 0 1 451.693 0)">
		<stop  offset="0" style="stop-color:#D8F0DD"/>
		<stop  offset="1" style="stop-color:#B5E3DF"/>
	</linearGradient>
	<path class="st19" d="M50.8,58.6c0,0-1.2,2.7-1.4,2.7c-0.2,0,0.1-2.2,0.1-2.2h-1c0,0-1.2,3.8-0.2,4.4c1,0.7,3.1-1.9,3.1-1.9
		L50.8,58.6z"/>
	<path class="st12" d="M54.3,65.4l-0.3,0.9c-0.2,0.3-0.8,0.3-1.2,0.2c-0.1,0-0.1-0.1,0-0.1c0.2-0.2,0.8-0.9,1-1L54.3,65.4z"/>
	
		<linearGradient id="SVGID_4_" gradientUnits="userSpaceOnUse" x1="-400.9406" y1="61.5474" x2="-397.4153" y2="61.5474" gradientTransform="matrix(1 0 0 1 451.693 0)">
		<stop  offset="0" style="stop-color:#D8F0DD"/>
		<stop  offset="1" style="stop-color:#B5E3DF"/>
	</linearGradient>
	<path class="st20" d="M51.4,58c0,0-0.6,0.4-0.6,0.9c0,0.5,0,6.2,0,6.2h3.5v-5.8c0,0-0.1-1.3-1.3-1.3C51.7,58,51.4,58,51.4,58z"/>
	<g>
		<rect x="50.7" y="59.5" class="st21" width="0.1" height="5.6"/>
	</g>
	<path class="st6" d="M52.6,56.6v1.5c0,0-0.2,0.3-0.7,0.3c-0.4,0-0.4-0.3-0.4-0.3v-0.9l0.7-0.2L52.6,56.6z"/>
	<path class="st12" d="M51.5,57.4c-0.1,0-0.3,0-0.3-0.1c-0.4-0.6,0.1-2.3,0.1-2.3l1.4,0.3l0,1.1c0,0.3-0.1,0.6-0.4,0.8l0,0
		C52,57.4,51.7,57.5,51.5,57.4z"/>
	<path class="st13" d="M51.9,55.3c0,0-0.5,0.1-1,0c-0.5-0.1-0.2-0.6-0.2-0.6s0.4,0.2,1,0.1c0.4-0.1,0.6-0.2,0.8,0
		c0.4,0.2,0.3,0.9,0.3,0.9l-0.2,1.5h-0.1c0,0,0-0.9,0-1.2c-0.1-0.1-0.2-0.1-0.2-0.1c-0.1,0-0.1,0.1-0.1,0.2v1.5c0,0-1,0.4-1.2,0.3
		c-0.2-0.1-0.1-1.2-0.1-1.2s0.3-0.1,0.5,0.1c0.2,0.2,0.5,0,0.5,0L51.9,55.3z"/>
	<path class="st12" d="M48.7,59.1l0-0.2c0.1-0.4,0.5-0.9,0.9-1.1l0.4,0l-0.1,0.9l-0.6,0.4H48.7z"/>
	<path class="st12" d="M52.5,55.8c-0.1,0-0.2,0.1-0.2,0.2c0,0.1,0.1,0.3,0.2,0.3c0.1,0,0.2-0.1,0.2-0.2C52.7,56,52.6,55.8,52.5,55.8
		z"/>
	<path class="st12" d="M49.7,58.6l-0.8,0.5c0,0,0.5,0,0.5,0l0.8-0.7c0,0-0.1-0.1-0.3,0C49.8,58.4,49.7,58.6,49.7,58.6z"/>
	
		<linearGradient id="SVGID_5_" gradientUnits="userSpaceOnUse" x1="-398.9745" y1="61.9915" x2="-395.7977" y2="61.9915" gradientTransform="matrix(1 0 0 1 451.693 0)">
		<stop  offset="0" style="stop-color:#B5E3DF"/>
		<stop  offset="1" style="stop-color:#D8F0DD"/>
	</linearGradient>
	<path class="st22" d="M53.9,58.4c0,0,2,2.2,2,3.5c0,1.3-1.6,3.7-1.6,3.7l-0.8-0.2c0,0,0.7-2.9,0.7-3.7c0-0.8-1.5-1.9-1.5-1.9"/>
	<g>
		<path class="st21" d="M54.1,61.7c0,0.7-0.6,3.1-0.7,3.7c0,0,0.1,0,0.1,0c0.2-0.7,0.7-3,0.7-3.7c0-0.8-1.4-1.9-1.5-1.9l-0.1,0.1
			C52.7,59.9,54.1,61,54.1,61.7z"/>
	</g>
	<g>
		<path class="st23" d="M50.2,57.1c0,0,0.2,0.9-0.4,1.5c0,0-0.1,0.1-0.1,0.1c-0.1,0-0.2,0-0.3,0c-0.1,0-0.1-0.1-0.2-0.1
			c0,0,0-0.1,0-0.1c0.1-0.2,0.4-0.7,0.3-1.2C49.9,57.1,50.2,57.1,50.2,57.1z"/>
		<path class="st24" d="M49.4,58.7C49.3,58.7,49.3,58.6,49.4,58.7c-0.1-0.1-0.1-0.2-0.1-0.2c0.1-0.2,0.4-0.7,0.3-1.2
			c0.1-0.1,0.2-0.1,0.3-0.1C49.9,57.7,49.8,58,49.4,58.7z"/>
		<g>
			<g>
				<path class="st23" d="M49.8,57.9c0,0.1-0.1,0.2-0.1,0.2c0,0-0.1-0.1,0-0.2c0-0.1,0.1-0.2,0.1-0.2C49.8,57.6,49.8,57.7,49.8,57.9
					z"/>
				<polygon class="st23" points="49.7,57.6 49.7,57.6 49.7,57.6 49.7,57.6 				"/>
				<polygon class="st25" points="49.7,58.1 49.6,58 49.7,58 				"/>
			</g>
			<path class="st26" d="M49.7,57.8c0,0.1-0.1,0.2-0.1,0.2c0,0-0.1-0.1,0-0.2c0-0.1,0.1-0.2,0.1-0.2C49.7,57.6,49.8,57.7,49.7,57.8z
				"/>
		</g>
		<path class="st26" d="M50.5,56.4L50.5,56.4c0.3,0,0.4,0.1,0.4,0.3V57c0,0.2-0.1,0.3-0.3,0.3h-0.1V56.4z"/>
		<path class="st13" d="M47.6,56.7c0,0.7,0.2,1.2,0.3,1.2c0.2,0,0.3-0.5,0.3-1.2c0-0.7-0.2-1.2-0.3-1.2C47.7,55.4,47.6,56,47.6,56.7
			z"/>
		<polygon class="st2" points="48.3,56.2 48,56.4 48,56.8 48.3,57.1 48.4,56.5 		"/>
		<path class="st3" d="M48.3,56.7c0-0.6-0.1-1-0.3-1.2c0,0,0,0,0,0c1.2,0.8,2.5,0.9,2.5,0.9v0.9c0,0-1.8-0.1-2.5,0.6c0,0,0,0,0,0
			C48.2,57.7,48.3,57.2,48.3,56.7z"/>
		<path class="st26" d="M48,56.6c0,0.1,0,0.2,0,0.2C48,56.8,48,56.7,48,56.6c0.1-0.1,0.1-0.2,0-0.2C48,56.4,48,56.5,48,56.6z"/>
	</g>
	<path class="st12" d="M49.1,58.4c0,0,0.1,0.1,0.4,0.1c0.2,0,0.3-0.3,0.4-0.4c0-0.1,0-0.1,0-0.2l-0.4-0.1L49.1,58.4z"/>
</g>
</svg>
