<?xml version="1.0" encoding="utf-8"?>
<!-- Generator: Adobe Illustrator 22.0.0, SVG Export Plug-In . SVG Version: 6.00 Build 0)  -->
<svg version="1.1" id="Layer_1" xmlns="http://www.w3.org/2000/svg" xmlns:xlink="http://www.w3.org/1999/xlink" x="0px" y="0px"
	 viewBox="0 0 100 100" style="enable-background:new 0 0 100 100;" xml:space="preserve">
<style type="text/css">
	.st0{fill:#E3C5C7;}
	.st1{fill:#6F355E;}
	.st2{fill:#CA85B8;}
	.st3{fill:none;stroke:#CA85B8;stroke-width:3;stroke-linecap:round;stroke-miterlimit:282;}
</style>
<g>
	<circle class="st0" cx="50" cy="50" r="49"/>
</g>
<path class="st1" d="M13,28.2l65.4-7.7c3.6-0.4,6.8,2.1,7.2,5.7l4.5,38c0.4,3.6-2.1,6.8-5.7,7.2L19,79c-3.6,0.4-6.8-2.1-7.2-5.7
	l-4.5-38C6.9,31.8,9.4,28.6,13,28.2L13,28.2z"/>
<path class="st2" d="M64.7,17.9l6.6,56c0.1,0.6-0.6,1.2-1.6,1.3c-0.9,0.1-1.7-0.3-1.8-0.9l-6.6-56c-0.1-0.6,0.6-1.2,1.6-1.3
	C63.8,16.8,64.6,17.2,64.7,17.9L64.7,17.9z"/>
<path class="st2" d="M86.5,36.8L5.8,46.3C5,46.4,4.5,47.1,4.6,48c0.1,0.8,0.8,1.5,1.6,1.4l80.7-9.5c0.8-0.1,1.4-0.9,1.3-1.7
	C88,37.3,87.3,36.7,86.5,36.8L86.5,36.8z"/>
<path class="st2" d="M22.3,59.5l-2.4,0.3l0.1,1.1l1.1-0.1l0.2,1.8c-0.1,0-0.1,0.1-0.3,0.1c-0.1,0-0.3,0.1-0.4,0.1
	c-0.6,0.1-1.1-0.1-1.6-0.5c-0.4-0.4-0.7-1-0.8-1.8c-0.1-0.9,0.1-1.5,0.4-2c0.4-0.5,0.9-0.7,1.6-0.8c0.3,0,0.6,0,0.8,0
	c0.2,0,0.4,0.1,0.6,0.1l0.2-1.2c-0.2-0.1-0.4-0.1-0.7-0.1c-0.3,0-0.6,0-1,0c-1.1,0.1-1.9,0.6-2.5,1.3c-0.6,0.7-0.9,1.7-0.8,2.9
	c0.1,0.6,0.2,1.1,0.4,1.5c0.2,0.5,0.5,0.8,0.9,1.1c0.3,0.3,0.7,0.4,1.2,0.5c0.4,0.1,0.9,0.1,1.5,0c0.4-0.1,0.8-0.1,1.2-0.3
	c0.4-0.1,0.6-0.2,0.9-0.3L22.3,59.5z"/>
<rect x="23.7" y="56" transform="matrix(0.9931 -0.1169 0.1169 0.9931 -6.8066 3.2599)" class="st2" width="1.4" height="7.3"/>
<polygon class="st2" points="28.4,62.9 28.1,59.9 30.4,59.6 30.3,58.4 27.9,58.7 27.7,56.8 30.2,56.5 30.1,55.3 26.2,55.8 27,63 "/>
<polygon class="st2" points="35.7,54.7 30.7,55.3 30.9,56.5 32.7,56.3 33.4,62.3 34.8,62.1 34.1,56.1 35.9,55.9 "/>
<path class="st3" d="M62.2,39C41.1,44.1,48,16.1,64,36.5c-1.3,4.6,1.5,9.9-9.3,13.5"/>
<path class="st3" d="M66.7,37.3c21.3,4.6,13.7-23.2-1.9-2.5c1.4,4.6-1.2,9.9,9.6,13.3"/>
<path class="st2" d="M23.1,71.9c-0.1,0.1-0.3,0.2-0.5,0.2c-0.2,0.1-0.4,0.1-0.6,0.1c-0.7,0.1-1.2-0.1-1.6-0.5
	c-0.4-0.4-0.7-1-0.8-1.8c-0.1-0.9,0-1.6,0.4-2c0.4-0.5,0.8-0.7,1.5-0.8c0.3,0,0.5,0,0.7,0c0.2,0,0.4,0.1,0.5,0.1l0.1-1.2
	c-0.1,0-0.3-0.1-0.6-0.1c-0.3,0-0.6,0-1,0c-1,0.1-1.8,0.5-2.4,1.3c-0.6,0.7-0.8,1.7-0.7,3c0.1,1.1,0.5,1.9,1.2,2.5
	c0.7,0.6,1.5,0.8,2.6,0.7c0.4,0,0.7-0.1,1-0.2c0.3-0.1,0.5-0.2,0.6-0.3L23.1,71.9z"/>
<path class="st2" d="M27,65.4l-1.8,0.2L24,73.1l1.4-0.2l0.3-2l1.9-0.2l0.7,1.9l1.5-0.2L27,65.4z M25.8,69.9l0.2-1.7
	c0-0.2,0.1-0.5,0.1-0.7c0-0.3,0-0.5,0.1-0.8l0,0c0.1,0.2,0.2,0.5,0.2,0.7c0.1,0.3,0.2,0.5,0.3,0.7l0.6,1.6L25.8,69.9z"/>
<path class="st2" d="M33.9,68.5c0.3-0.2,0.6-0.4,0.8-0.8c0.2-0.3,0.3-0.7,0.2-1.2c-0.1-0.6-0.3-1.1-0.7-1.3
	c-0.4-0.3-0.8-0.4-1.2-0.4c-0.4,0-0.8,0-1.1,0c-0.4,0-0.7,0.1-1,0.2c-0.3,0.1-0.6,0.1-0.8,0.2l0.8,7.2l1.4-0.2L32,69.2l0.5-0.1
	c0.3,0,0.6,0,0.8,0.2c0.2,0.2,0.4,0.5,0.5,0.9c0.1,0.4,0.3,0.8,0.4,1.1c0.1,0.3,0.2,0.5,0.3,0.6l1.4-0.2c-0.1-0.1-0.2-0.4-0.3-0.8
	c-0.1-0.4-0.3-0.8-0.4-1.2c-0.1-0.4-0.3-0.7-0.5-0.9C34.4,68.7,34.2,68.6,33.9,68.5L33.9,68.5z M31.8,68.2L31.6,66
	c0.1-0.1,0.3-0.1,0.6-0.1c0.3,0,0.5,0,0.8,0.1c0.3,0.1,0.4,0.4,0.5,0.9c0,0.3,0,0.6-0.2,0.9c-0.2,0.2-0.5,0.4-0.9,0.4L31.8,68.2z"/>
<path class="st2" d="M36.8,71.6c0.2,0,0.4,0,0.7,0c0.3,0,0.6,0,0.9-0.1c0.6-0.1,1.2-0.2,1.7-0.4c0.5-0.2,0.9-0.5,1.2-0.8
	c0.3-0.3,0.5-0.7,0.6-1.2C42,68.6,42,68,42,67.2c-0.1-0.7-0.2-1.2-0.5-1.6c-0.2-0.4-0.6-0.8-0.9-1c-0.3-0.2-0.7-0.4-1.2-0.4
	c-0.4-0.1-1-0.1-1.6,0c-0.4,0-0.7,0.1-1,0.2c-0.3,0.1-0.6,0.1-0.9,0.2L36.8,71.6z M37.5,65.3c0.1,0,0.2,0,0.3-0.1
	c0.1,0,0.2,0,0.4-0.1c0.7-0.1,1.2,0.1,1.6,0.4c0.4,0.4,0.7,1,0.8,1.8c0.1,0.9,0,1.7-0.4,2.1c-0.3,0.5-0.9,0.8-1.5,0.8
	c-0.1,0-0.2,0-0.3,0c-0.1,0-0.2,0-0.3,0L37.5,65.3z"/>
</svg>
