<?xml version="1.0" encoding="utf-8"?>
<!-- Generator: Adobe Illustrator 22.0.0, SVG Export Plug-In . SVG Version: 6.00 Build 0)  -->
<svg version="1.1" id="Layer_1" xmlns="http://www.w3.org/2000/svg" xmlns:xlink="http://www.w3.org/1999/xlink" x="0px" y="0px"
	 viewBox="0 0 1000 1000" style="enable-background:new 0 0 1000 1000;" xml:space="preserve">
<style type="text/css">
	.st0{fill:#DAABCE;}
	.st1{fill:#F2F3F1;}
	.st2{fill:#6F355E;}
	.st3{fill:#BFCBC1;}
	.st4{fill:#9EA39F;}
	.st5{fill:#933C81;}
	.st6{fill:#9B672F;}
	.st7{fill:#CB984C;}
	.st8{fill:#E5B765;}
	.st9{fill:#B88439;}
	.st10{fill:#875A29;}
	.st11{fill:#F1C182;}
	.st12{fill:#E4B274;}
	.st13{fill:#F27701;}
	.st14{fill:#F78A01;}
	.st15{fill:#FFFFFF;}
	.st16{opacity:0.98;fill:#FFFFFF;enable-background:new    ;}
</style>
<g>
	<path class="st0" d="M895.1,826.7C961.5,741.8,1001,635,1001,518.9c0-276.1-223.9-500-500-500c-276.1,0-500,223.9-500,500
		C1,635,40.5,741.8,106.9,826.7H895.1z"/>
</g>
<g>
	<path class="st1" d="M879.7,790.5c0,15.7-5.7,19-21.5,19H145.5c-15.9,0-19.1-3.3-19.1-19V323.3c0-15.7,3.3-19,19.1-19h712.7
		c15.9,0,21.5,3.3,21.5,19V790.5z"/>
</g>
<g>
	<rect x="159.1" y="340.4" class="st2" width="694.2" height="432.9"/>
</g>
<g>
	<path class="st1" d="M979.3,894.5c-4.5-3.8-101.6-85-109-85h-23.8H157.5h-23.8c-7.4,0-104.6,81.2-109,85
		c-7.3,6.1-7.8,14.3-0.4,14.3c42.4,0.1,103.6,0.1,109.5,0.1h23.8h688.9h23.8c5.9,0,67.1,0,109.5-0.1
		C987.1,908.8,986.6,900.6,979.3,894.5z"/>
</g>
<g>
	<path class="st3" d="M978.4,894.5c-4.5-3.8-101.6-85-109-85h-22.9H156.6h-22.9c-7.4,0-104.6,81.2-109,85c-7.3,6.1-0.7,7.6,6.6,7.6
		c42.4,0.1,97,1,102.9,1h22h690.7h22c5.9,0,60.5-0.9,102.9-1C979.1,902.1,985.6,900.6,978.4,894.5z"/>
</g>
<g>
	<path class="st4" d="M662,893.3c-1.4-1.3-15.9-29.5-18.2-29.5h-7.3H397.2h-23.6c-2.4,0-12.7,28.2-14.2,29.5
		c-2.3,2.1-0.2,2.6,2.1,2.6c13.5,0,30.8,0.3,32.6,0.3h7h219.1h7c1.9,0,19.2-0.3,32.6-0.3C662.2,895.9,664.3,895.4,662,893.3z"/>
</g>
<g>
	<path class="st4" d="M800,856.3h36.6l-5.3-6h0.1l-25.4-28.2l-35.5-0.2l4.2,6.9l-8.7,0l-3.3-7l-37.6-0.3l0.6,3h-8.1l-0.8-2.8
		l-36.2-0.2l0.6,2.9h-6.5l-0.5-2.9l-36.3,0l-0.1,2.9h-7.4v-2.7l-35.1,0.1l-0.4,2.6h-8.2l0.3-2.4l-35-0.1l-0.7,2.6h-6.1l0.8-2.6
		l-37.2,0.1l-0.7,2.5h-7.3l0.8-2.2l-37-0.5l-1.3,2.7h-6.6l1.5-2.7l-37.1-0.5l-1.5,3.2h-7l1.9-3.4l-37-0.5l-1.8,3.9h-6.4l1.9-3.4
		l-37.1-0.5l-1.8,3.9h-6.9l1.9-3.4l-37.1-0.5l-5,8.5l-6.7,0l4.8-8.7l-37.1-0.5l-6.7,9.1l-7.3,0.2l7.4-9.3l-32.9,0.3l-38.9,36.6
		l42.4-0.4l5.3-6.4l5.4,0l-4.2,6.8h38.4l4.4-6.5h5l-3.1,6.5h38.4l4.4-6.5h6.4l-4.1,6.5h53.5l4.2-6.5l6.2,0.2l-3,6.3l225.3-0.4
		l-0.1-6h7.1l0.5,6h52.3l-0.7-6h6.6l1.3,6H702l-1.2-6h5.8l1.4,6h37.1l-1.8-6h7.1l2.2,6h39.7l-3.3-6h7.2L800,856.3z"/>
</g>
<g>
	<polygon class="st5" points="853.4,773.3 159.1,340.4 853.4,340.4 	"/>
</g>
<g>
	<g>
		<polygon class="st6" points="775.7,477.5 283,477.5 228.3,422.3 283,146.3 721,91.1 775.7,146.3 		"/>
	</g>
	<g>
		<polygon class="st7" points="775.7,477.5 721,422.3 721,91.1 775.7,146.3 		"/>
	</g>
	<g>
		<rect x="228.3" y="91.1" class="st8" width="492.7" height="331.2"/>
	</g>
	<polygon class="st9" points="757.7,344.9 764.8,330.1 764.8,261.6 758.3,236.4 775.7,146.3 755.2,224.6 721,91.1 758.7,262.2 
		758.7,328.4 721,422.3 753.4,354 775.7,477.5 	"/>
	<g>
		<rect x="458.6" y="91.1" class="st7" width="43.3" height="331.2"/>
	</g>
	<g>
		<polygon class="st10" points="555.1,477.5 511.7,477.5 458.1,422.3 501.5,422.3 		"/>
	</g>
	<g>
		<rect x="458.6" y="229.1" class="st9" width="43.3" height="55.2"/>
	</g>
	<g>
		<rect x="228.3" y="234.8" class="st7" width="492.7" height="43.7"/>
	</g>
	<g>
		<polygon class="st6" points="775.6,332.7 775.7,288.9 721,234.8 721,278.5 		"/>
	</g>
	<g>
		<rect x="543.6" y="315.8" class="st7" width="125.9" height="6.8"/>
	</g>
	<g>
		<rect x="543.6" y="329" class="st7" width="125.9" height="6.8"/>
	</g>
	<g>
		<rect x="543.6" y="342.8" class="st7" width="63" height="6.8"/>
	</g>
	<g>
		<rect x="543.6" y="363.9" class="st7" width="2.7" height="21.7"/>
	</g>
	<g>
		<rect x="549.1" y="363.9" class="st7" width="3.7" height="21.7"/>
	</g>
	<g>
		<rect x="557.4" y="363.9" class="st7" width="2.4" height="21.7"/>
	</g>
	<g>
		<rect x="561.8" y="363.9" class="st7" width="2.4" height="21.7"/>
	</g>
	<g>
		<rect x="568.8" y="363.9" class="st7" width="3.7" height="21.7"/>
	</g>
	<g>
		<rect x="577.5" y="363.9" class="st7" width="3.7" height="21.7"/>
	</g>
	<g>
		<rect x="582.6" y="363.9" class="st7" width="2.4" height="21.7"/>
	</g>
	<g>
		<rect x="587" y="363.9" class="st7" width="2.4" height="21.7"/>
	</g>
	<g>
		<rect x="594" y="363.9" class="st7" width="2.7" height="21.7"/>
	</g>
	<g>
		<rect x="599.4" y="363.9" class="st7" width="3.7" height="21.7"/>
	</g>
	<g>
		<rect x="607.8" y="363.9" class="st7" width="2.4" height="21.7"/>
	</g>
	<g>
		<rect x="612.2" y="363.9" class="st7" width="2.4" height="21.7"/>
	</g>
	<g>
		<rect x="619.1" y="363.9" class="st7" width="2.7" height="21.7"/>
	</g>
	<g>
		<rect x="624.1" y="363.9" class="st7" width="3.7" height="21.7"/>
	</g>
</g>
<g>
	<g>
		<path class="st11" d="M711.5,458.7c-36.1-4.6-78.2,44.4-78.2,44.4L554.8,534l-104.3-27.2l70-7.6c32.7-8.5,47.7-18.4,43.3-35.9
			c-3.4-13.4-27.4-9.8-53.9-6.2c0,0-71.7-1.3-135.5,1.7c-13.7,0.6-26.7,1.1-43.8,13.5c-14.4,10.4-26.4,32.4-28.1,34.1l-63.6,88.3
			L350,673.9l41.6-70.2c3.2,0.4,168-1,168-1l96.3-57.6l78.2-64.2C734.1,480.9,737,461.9,711.5,458.7z"/>
	</g>
	<g>
		<path class="st12" d="M545.8,458.2L545.8,458.2c-11.1,1.1-19.6,8-18.9,15.4c0.3,3.1,2.2,5.9,5.1,7.9c-5.7-1.6-9.6-5-10-9.2
			c-0.6-6.7,7.9-12.9,19-14C542.6,458.1,544.2,458.1,545.8,458.2z"/>
	</g>
	<g>
		<polygon class="st13" points="239.7,549.8 159.1,659 159.1,773.3 297.6,773.3 384,656.2 		"/>
	</g>
	<polygon class="st14" points="292.9,589 239.7,549.8 159.1,659 159.1,773.1 	"/>
	<g>
		<path class="st12" d="M723.2,474.5L723.2,474.5c-13.3,8.5-20.2,14.1-21,20.6c-0.3,2.8,0.8,4.7,3.1,5.8c-4.8,0-7.1,0-7.3-4.5
			c-0.3-5.4,6.6-13.7,18.3-18.9C717.8,476.8,721.8,474.8,723.2,474.5z"/>
	</g>
</g>
<path class="st15" d="M297.9,384.9v10.5h-1.8V385c0-1.5-0.4-2.7-1.2-3.6c-0.8-0.9-1.9-1.4-3.2-1.4c-1.4,0-2.5,0.5-3.5,1.4
	c-0.9,0.9-1.4,2-1.4,3.3v10.7h-1.7V385c0-1.5-0.4-2.7-1.2-3.6c-0.8-0.9-1.9-1.4-3.3-1.4c-1.4,0-2.6,0.5-3.5,1.4s-1.4,2.1-1.4,3.6
	v10.4h-1.7v-16.7h1.7v2.2c1.2-1.7,2.9-2.5,5.1-2.5c2.6,0,4.3,1.1,5.3,3.3c1.2-2.2,3.2-3.3,5.8-3.3c1.8,0,3.3,0.6,4.3,1.8
	C297.4,381.3,297.9,382.9,297.9,384.9z"/>
<path class="st15" d="M312.2,378.8h1.9l-8.3,19.4c-0.6,1.4-1.3,2.3-2.2,2.9c-0.8,0.6-1.9,0.9-3,0.9c-0.8,0-1.6-0.1-2.3-0.3v-1.5
	c0.7,0.1,1.4,0.2,2.1,0.2c1.8,0,3.1-0.9,3.9-2.9l1.1-2.5l-7.2-16.3h1.9l6.2,14.4L312.2,378.8z"/>
<polygon class="st15" points="339.6,378.5 343.5,378.5 335.9,395.8 334.7,395.8 329.4,384.5 324.1,395.8 322.8,395.8 315.3,378.5 
	319.2,378.5 323.6,389.6 328.7,378.1 330,378.1 335.2,389.4 "/>
<path class="st15" d="M344.9,395.4v-17h3.6v17H344.9L344.9,395.4z M345,373.8c-0.5-0.5-0.7-1-0.7-1.7c0-0.7,0.2-1.2,0.7-1.7
	c0.5-0.5,1.1-0.7,1.8-0.7c0.7,0,1.2,0.2,1.7,0.7c0.5,0.5,0.7,1,0.7,1.7s-0.2,1.2-0.7,1.7c-0.5,0.5-1.1,0.7-1.7,0.7
	C346.1,374.5,345.5,374.3,345,373.8z"/>
<path class="st15" d="M349.9,392.5l2.1-2.3c1.5,1.6,3.1,2.4,4.8,2.4c0.8,0,1.4-0.2,2-0.5c0.5-0.3,0.8-0.8,0.8-1.4
	c0-0.5-0.2-0.8-0.5-1.1c-0.4-0.3-1-0.6-1.9-1l-1.7-0.7c-1.5-0.7-2.7-1.3-3.4-2.1c-0.7-0.7-1.1-1.7-1.1-2.8c0-1.5,0.6-2.7,1.7-3.6
	c1.1-0.9,2.5-1.3,4.3-1.3c2.5,0,4.4,0.9,5.9,2.6l-2,2.2c-1.1-1.2-2.4-1.7-4-1.7c-1.5,0-2.3,0.5-2.3,1.6c0,0.4,0.1,0.8,0.5,1.1
	c0.3,0.3,0.9,0.6,1.8,0.9l1.6,0.7c1.6,0.7,2.8,1.4,3.6,2.2s1.1,1.7,1.1,2.9c0,1.6-0.6,2.9-1.8,3.8c-1.2,0.9-2.7,1.4-4.5,1.4
	C353.8,395.8,351.6,394.7,349.9,392.5z"/>
<path class="st15" d="M379.4,384.8v10.6h-3.6v-10.1c0-1.2-0.3-2.1-1-2.8c-0.7-0.7-1.6-1.1-2.7-1.1c-1.1,0-2,0.4-2.8,1.1
	c-0.7,0.7-1.1,1.7-1.1,2.8v10.1h-3.6v-25.9h3.6v10.7c1.2-1.4,2.8-2.1,4.9-2.1c1.9,0,3.4,0.6,4.6,1.8
	C378.8,381.2,379.4,382.8,379.4,384.8z"/>
<rect x="381.3" y="369.5" class="st15" width="3.6" height="25.9"/>
<path class="st15" d="M386.8,395.4v-17h3.6v17H386.8L386.8,395.4z M386.9,373.8c-0.5-0.5-0.7-1-0.7-1.7c0-0.7,0.2-1.2,0.7-1.7
	c0.5-0.5,1.1-0.7,1.8-0.7c0.7,0,1.2,0.2,1.7,0.7c0.5,0.5,0.7,1,0.7,1.7s-0.2,1.2-0.7,1.7c-0.5,0.5-1.1,0.7-1.7,0.7
	C387.9,374.5,387.4,374.3,386.9,373.8z"/>
<path class="st15" d="M391.7,392.5l2.1-2.3c1.5,1.6,3.1,2.4,4.8,2.4c0.8,0,1.4-0.2,2-0.5c0.5-0.3,0.8-0.8,0.8-1.4
	c0-0.5-0.2-0.8-0.5-1.1c-0.4-0.3-1-0.6-1.9-1l-1.7-0.7c-1.5-0.7-2.7-1.3-3.4-2.1c-0.7-0.7-1.1-1.7-1.1-2.8c0-1.5,0.6-2.7,1.7-3.6
	s2.5-1.3,4.3-1.3c2.5,0,4.4,0.9,5.9,2.6l-2,2.2c-1.1-1.2-2.4-1.7-4-1.7s-2.3,0.5-2.3,1.6c0,0.4,0.1,0.8,0.5,1.1
	c0.3,0.3,0.9,0.6,1.8,0.9l1.6,0.7c1.6,0.7,2.8,1.4,3.6,2.2s1.1,1.7,1.1,2.9c0,1.6-0.6,2.9-1.8,3.8c-1.2,0.9-2.7,1.4-4.5,1.4
	C395.7,395.8,393.4,394.7,391.7,392.5z"/>
<path class="st15" d="M417,392.4v3.1c-1.2,0.3-2.2,0.4-3,0.4c-2,0-3.5-0.5-4.6-1.5c-1.1-1-1.6-2.5-1.6-4.4v-8.3H405v-3.2h2.8V374
	h3.7v4.5h5.1v3.1h-5.1v8c0,1.1,0.3,1.8,0.8,2.2c0.5,0.4,1.4,0.7,2.5,0.7C415.2,392.5,415.9,392.5,417,392.4z"/>
<path class="st15" d="M432,384.9v10.5h-1.7V385c0-1.5-0.4-2.7-1.3-3.6c-0.8-0.9-2-1.4-3.4-1.4c-1.4,0-2.7,0.5-3.6,1.4
	c-0.9,0.9-1.4,2.1-1.4,3.6v10.4H419v-16.7h1.7v2.2c1.2-1.7,3-2.6,5.3-2.6c1.9,0,3.4,0.6,4.5,1.8C431.5,381.4,432,383,432,384.9z"/>
<path class="st15" d="M448.3,378.8h1.7V394c0,2.5-0.7,4.4-2.2,5.9c-1.5,1.4-3.4,2.2-5.8,2.2c-3.1,0-5.7-1.1-7.7-3.3l1.1-1.2
	c1.9,1.9,4.1,2.8,6.6,2.8c1.9,0,3.4-0.6,4.6-1.7s1.7-2.7,1.7-4.7v-2.2c-0.7,1.1-1.6,2-2.8,2.6c-1.2,0.7-2.5,1-4,1
	c-2.3,0-4.3-0.8-5.9-2.5c-1.6-1.7-2.4-3.7-2.4-6c0-2.4,0.8-4.4,2.4-6c1.6-1.6,3.6-2.5,5.9-2.5c1.4,0,2.8,0.3,4.1,1
	c1.2,0.7,2.2,1.5,2.8,2.7L448.3,378.8L448.3,378.8z M448.3,386.9c0-2.2-0.6-3.8-1.9-5c-1.3-1.2-2.8-1.8-4.6-1.8
	c-1.9,0-3.5,0.7-4.8,2c-1.3,1.3-1.9,2.9-1.9,4.9c0,1.9,0.7,3.6,1.9,4.9c1.3,1.3,2.9,2,4.8,2c1.8,0,3.4-0.6,4.6-1.8
	S448.3,389.1,448.3,386.9z"/>
<path class="st15" d="M274.5,373.9v-5.3h0.4v5.3H274.5L274.5,373.9z M278.3,373.4c-0.2,0.2-0.4,0.4-0.6,0.5
	c-0.2,0.1-0.4,0.1-0.7,0.1c-0.4,0-0.7-0.1-0.9-0.4s-0.3-0.6-0.3-1v-2.2h0.4v2c0,0.4,0.1,0.7,0.2,0.9s0.4,0.3,0.7,0.3
	c0.2,0,0.5-0.1,0.7-0.2c0.2-0.1,0.4-0.3,0.5-0.5v-2.5h0.4v3.5h-0.4L278.3,373.4L278.3,373.4z M279.1,373.9l1.4-1.8l-1.4-1.7h0.5
	l1.2,1.4l1.2-1.4h0.4l-1.4,1.7l1.4,1.8H282l-1.2-1.5l-1.2,1.5H279.1L279.1,373.9z M285.4,373.4c-0.2,0.2-0.4,0.4-0.6,0.5
	c-0.2,0.1-0.4,0.1-0.7,0.1c-0.4,0-0.7-0.1-0.9-0.4c-0.2-0.2-0.3-0.6-0.3-1v-2.2h0.4v2c0,0.4,0.1,0.7,0.2,0.9s0.4,0.3,0.7,0.3
	c0.2,0,0.5-0.1,0.7-0.2c0.2-0.1,0.4-0.3,0.5-0.5v-2.5h0.4v3.5h-0.4L285.4,373.4L285.4,373.4z M286.7,373.9v-3.5h0.4v0.9
	c0.2-0.3,0.4-0.6,0.6-0.7c0.2-0.1,0.4-0.2,0.6-0.2c0.1,0,0.2,0,0.3,0.1c0.1,0,0.2,0.1,0.3,0.2l-0.2,0.4c-0.1-0.1-0.2-0.1-0.3-0.2
	c-0.1,0-0.2-0.1-0.3-0.1c-0.1,0-0.3,0.1-0.5,0.2c-0.1,0.1-0.4,0.4-0.5,0.7v2.2L286.7,373.9L286.7,373.9z M290.3,373.2l-1.2,2.5h0.4
	l2.6-5.3h-0.4l-1.2,2.4l-1.2-2.4h-0.4L290.3,373.2L290.3,373.2z M295.6,374.1c-0.4,0-0.7,0.1-0.9,0.2c-0.2,0.1-0.3,0.3-0.3,0.5
	c0,0.2,0.1,0.4,0.3,0.4c0.2,0.1,0.5,0.1,0.9,0.1s0.7-0.1,0.9-0.2c0.2-0.1,0.3-0.3,0.3-0.5c0-0.2-0.1-0.4-0.3-0.5
	C296.4,374.1,296.1,374.1,295.6,374.1L295.6,374.1z M294.7,371.7c0,0.2,0.1,0.5,0.3,0.7s0.4,0.3,0.7,0.3c0.3,0,0.5-0.1,0.7-0.3
	c0.2-0.2,0.3-0.4,0.3-0.7s-0.1-0.5-0.3-0.7c-0.2-0.2-0.4-0.3-0.7-0.3c-0.3,0-0.5,0.1-0.7,0.3C294.8,371.2,294.7,371.4,294.7,371.7
	L294.7,371.7z M295.2,372.8c-0.3-0.1-0.5-0.3-0.7-0.5c-0.1-0.2-0.2-0.4-0.2-0.7c0-0.2,0.1-0.4,0.2-0.6c0.1-0.2,0.3-0.3,0.5-0.5
	c0.1-0.1,0.2-0.1,0.4-0.1c0.1,0,0.4,0,0.6,0h1.3v0.3h-0.7c0.1,0.1,0.2,0.3,0.3,0.4c0.1,0.1,0.1,0.3,0.1,0.5c0,0.3-0.1,0.6-0.3,0.8
	c-0.2,0.2-0.5,0.4-0.9,0.5c-0.1,0-0.1,0-0.3,0.1c-0.4,0.1-0.6,0.2-0.6,0.4s0.3,0.3,0.8,0.3h0c0.5,0.1,0.9,0.1,1.1,0.3
	c0.2,0.1,0.3,0.4,0.3,0.7c0,0.3-0.1,0.6-0.4,0.8c-0.3,0.2-0.7,0.2-1.2,0.2c-0.5,0-0.9-0.1-1.1-0.2c-0.3-0.1-0.4-0.4-0.4-0.7
	c0-0.2,0.1-0.4,0.2-0.6c0.2-0.1,0.4-0.2,0.7-0.3c-0.1,0-0.3-0.1-0.4-0.2c-0.1-0.1-0.1-0.2-0.1-0.3c0-0.1,0.1-0.2,0.1-0.4
	C294.8,373,295,372.9,295.2,372.8L295.2,372.8z M297.8,369.3v-0.7h0.4v0.7H297.8L297.8,369.3z M297.8,373.9v-3.5h0.4v3.5H297.8
	L297.8,373.9z M299.2,373.9v-3.2h-0.6v-0.3h0.6V370c0-0.5,0.1-0.9,0.3-1.1c0.2-0.2,0.5-0.4,0.9-0.4c0.1,0,0.1,0,0.2,0s0.1,0,0.2,0
	v0.4c-0.1,0-0.1,0-0.2,0s-0.1,0-0.2,0c-0.3,0-0.5,0.1-0.7,0.2c-0.1,0.1-0.2,0.4-0.2,0.8v0.5h0.7v0.3h-0.7v3.2H299.2L299.2,373.9z
	 M301.3,373.1v-2.3h0.9v-0.3h-0.9v-1.2h-0.1l-0.3,0.4v0.8h-0.8v0.3h0.7v2.3c0,0.4,0.1,0.6,0.2,0.7c0.1,0.1,0.3,0.2,0.6,0.2
	c0.1,0,0.2,0,0.3,0c0.1,0,0.2-0.1,0.3-0.1v-0.4c-0.1,0.1-0.2,0.1-0.3,0.1c-0.1,0-0.2,0-0.3,0c-0.2,0-0.3,0-0.4-0.1
	C301.3,373.4,301.3,373.3,301.3,373.1L301.3,373.1z M304.8,373.9v-3.5h0.4v0.9c0.2-0.3,0.4-0.6,0.6-0.7c0.2-0.1,0.4-0.2,0.6-0.2
	c0.1,0,0.2,0,0.3,0.1c0.1,0,0.2,0.1,0.3,0.2l-0.2,0.4c-0.1-0.1-0.2-0.1-0.3-0.2c-0.1,0-0.2-0.1-0.3-0.1c-0.1,0-0.3,0.1-0.5,0.2
	c-0.1,0.1-0.4,0.4-0.5,0.7v2.2L304.8,373.9L304.8,373.9z M310.1,373.5c-0.2,0.1-0.4,0.3-0.7,0.4c-0.2,0.1-0.4,0.1-0.7,0.1
	c-0.5,0-0.9-0.2-1.3-0.5c-0.3-0.4-0.5-0.8-0.5-1.4c0-0.5,0.1-0.9,0.4-1.3s0.7-0.5,1.2-0.5c0.4,0,0.8,0.1,1.1,0.5
	c0.3,0.3,0.4,0.7,0.4,1.2v0h-2.7v0c0,0.4,0.1,0.8,0.4,1.1c0.2,0.3,0.6,0.4,0.9,0.4c0.2,0,0.4,0,0.7-0.1c0.2-0.1,0.4-0.2,0.7-0.4
	L310.1,373.5L310.1,373.5z M307.5,371.7h2.2c0-0.3-0.1-0.6-0.4-0.7s-0.4-0.3-0.7-0.3c-0.3,0-0.5,0.1-0.7,0.3
	C307.7,371.2,307.6,371.4,307.5,371.7L307.5,371.7z M312.2,374.1c-0.4,0-0.7,0.1-0.9,0.2c-0.2,0.1-0.3,0.3-0.3,0.5
	c0,0.2,0.1,0.4,0.3,0.4c0.2,0.1,0.5,0.1,0.9,0.1s0.7-0.1,0.9-0.2c0.2-0.1,0.3-0.3,0.3-0.5c0-0.2-0.1-0.4-0.3-0.5
	C312.8,374.1,312.5,374.1,312.2,374.1L312.2,374.1z M311.2,371.7c0,0.2,0.1,0.5,0.3,0.7s0.4,0.3,0.7,0.3s0.5-0.1,0.7-0.3
	c0.2-0.2,0.3-0.4,0.3-0.7s-0.1-0.5-0.3-0.7c-0.2-0.2-0.4-0.3-0.7-0.3s-0.5,0.1-0.7,0.3C311.3,371.2,311.2,371.4,311.2,371.7
	L311.2,371.7z M311.7,372.8c-0.3-0.1-0.5-0.3-0.7-0.5c-0.1-0.2-0.2-0.4-0.2-0.7c0-0.2,0.1-0.4,0.2-0.6s0.3-0.3,0.5-0.5
	c0.1-0.1,0.2-0.1,0.4-0.1c0.1,0,0.4,0,0.6,0h1.3v0.3H313c0.1,0.1,0.2,0.3,0.3,0.4c0.1,0.1,0.1,0.3,0.1,0.5c0,0.3-0.1,0.6-0.3,0.8
	c-0.2,0.2-0.5,0.4-0.9,0.5c-0.1,0-0.1,0-0.3,0.1c-0.4,0.1-0.6,0.2-0.6,0.4s0.3,0.3,0.8,0.3h0c0.5,0.1,0.9,0.1,1.1,0.3
	c0.2,0.1,0.3,0.4,0.3,0.7c0,0.3-0.1,0.6-0.4,0.8c-0.3,0.2-0.7,0.2-1.2,0.2c-0.5,0-0.9-0.1-1.1-0.2c-0.3-0.1-0.4-0.4-0.4-0.7
	c0-0.2,0.1-0.4,0.2-0.6c0.2-0.1,0.4-0.2,0.7-0.3c-0.1,0-0.3-0.1-0.4-0.2c-0.1-0.1-0.1-0.2-0.1-0.3c0-0.1,0.1-0.2,0.1-0.4
	C311.3,373,311.5,372.9,311.7,372.8L311.7,372.8z M314.3,369.3v-0.7h0.4v0.7H314.3L314.3,369.3z M314.3,373.9v-3.5h0.4v3.5H314.3
	L314.3,373.9z M315.4,373.3c0.2,0.1,0.4,0.2,0.5,0.3c0.2,0.1,0.4,0.1,0.5,0.1c0.2,0,0.4-0.1,0.5-0.1c0.1-0.1,0.2-0.2,0.2-0.4
	c0-0.3-0.2-0.5-0.7-0.7c-0.1-0.1-0.2-0.1-0.3-0.1c-0.3-0.1-0.4-0.2-0.6-0.4c-0.1-0.1-0.2-0.4-0.2-0.6c0-0.3,0.1-0.5,0.3-0.7
	s0.5-0.3,0.8-0.3c0.1,0,0.3,0,0.5,0.1c0.1,0.1,0.3,0.1,0.5,0.2v0.4c-0.2-0.1-0.4-0.2-0.5-0.3s-0.3-0.1-0.5-0.1
	c-0.2,0-0.4,0.1-0.5,0.2c-0.1,0.1-0.2,0.3-0.2,0.4c0,0.1,0.1,0.3,0.2,0.4c0.1,0.1,0.4,0.2,0.7,0.3c0.4,0.1,0.6,0.3,0.7,0.4
	c0.1,0.1,0.2,0.3,0.2,0.6c0,0.3-0.1,0.6-0.3,0.7c-0.2,0.2-0.5,0.3-0.9,0.3c-0.2,0-0.4,0-0.5-0.1s-0.3-0.1-0.5-0.2V373.3L315.4,373.3
	z M318.9,373.1c0,0.2,0,0.4,0.1,0.5c0.1,0.1,0.2,0.1,0.4,0.1c0.1,0,0.2,0,0.3,0c0.1,0,0.2-0.1,0.3-0.1v0.4c-0.1,0.1-0.2,0.1-0.3,0.1
	c-0.1,0-0.2,0-0.3,0c-0.3,0-0.5-0.1-0.6-0.2c-0.1-0.1-0.2-0.4-0.2-0.7v-2.3h-0.7v-0.3h0.8v-0.8l0.3-0.4h0.1v1.2h0.9v0.3h-0.9V373.1
	L318.9,373.1z M320.4,373.9v-3.5h0.4v0.9c0.2-0.3,0.4-0.6,0.6-0.7c0.2-0.1,0.4-0.2,0.6-0.2c0.1,0,0.2,0,0.3,0.1
	c0.1,0,0.2,0.1,0.3,0.2l-0.2,0.4c-0.1-0.1-0.2-0.1-0.3-0.2c-0.1,0-0.2-0.1-0.3-0.1c-0.1,0-0.3,0.1-0.5,0.2c-0.1,0.1-0.4,0.4-0.5,0.7
	v2.2L320.4,373.9L320.4,373.9z M324,373.2l-1.2,2.5h0.4l2.6-5.3h-0.4l-1.2,2.4l-1.2-2.4h-0.4L324,373.2z"/>
<path class="st16" d="M240.5,394.9c-2.2,0.7-3.7,0.6-5.4-1c-1.8-1.7-2.1-4.4-0.6-6c2.4-2.5,7.3-2.6,12.6-2.3
	c0.2,1.3,1.2,2.3,2.5,2.5c0.4,5.2,0.6,10.1-1.8,12.5c-1.5,1.6-4.2,1.4-6-0.3C240.1,398.6,240,397.1,240.5,394.9z"/>
<path class="st16" d="M259.8,394.9c2.2,0.6,3.7,0.6,5.4-1c1.8-1.7,2.1-4.4,0.6-6c-2.4-2.5-7.4-2.6-12.7-2.3
	c-0.1,1.2-1.1,2.2-2.3,2.5c-0.4,5.2-0.6,10,1.8,12.5c1.5,1.6,4.2,1.4,6-0.3C260.2,398.6,260.3,397.1,259.8,394.9z"/>
<path class="st16" d="M240.5,375.4c-2.2-0.7-3.7-0.6-5.4,1c-1.8,1.7-2.1,4.4-0.6,6c2.4,2.5,7.3,2.6,12.5,2.3
	c0.1-1.3,1.2-2.3,2.5-2.5c0.4-5.2,0.6-10-1.8-12.5c-1.4-1.6-4.2-1.4-6,0.3C240.1,371.7,240,373.2,240.5,375.4z"/>
<path class="st16" d="M259.8,375.4c2.2-0.6,3.7-0.6,5.4,1c1.8,1.7,2.1,4.4,0.6,6c-2.4,2.5-7.4,2.6-12.7,2.3
	c-0.1-1.2-1.1-2.2-2.3-2.5c-0.4-5.2-0.6-10.1,1.8-12.5c1.5-1.6,4.2-1.4,6,0.3C260.2,371.7,260.3,373.2,259.8,375.4z"/>
</svg>
