<?xml version="1.0" encoding="utf-8"?>
<!-- Generator: Adobe Illustrator 22.0.0, SVG Export Plug-In . SVG Version: 6.00 Build 0)  -->
<svg version="1.1" id="Layer_1" xmlns="http://www.w3.org/2000/svg" xmlns:xlink="http://www.w3.org/1999/xlink" x="0px" y="0px"
	 viewBox="0 0 1000 1000" style="enable-background:new 0 0 1000 1000;" xml:space="preserve">
<style type="text/css">
	.st0{opacity:0.69;fill:#CA85B8;}
	.st1{fill:#D6D6D6;}
	.st2{fill:#C7C7C7;}
	.st3{fill:#F2F2F2;}
	.st4{fill:#242424;}
	.st5{opacity:6.000000e-02;clip-path:url(#SVGID_2_);}
	.st6{fill:#FFFFFF;}
	.st7{opacity:0.46;fill:#808080;}
	.st8{opacity:0.71;clip-path:url(#SVGID_4_);fill:#242424;}
	.st9{fill:#F2F2E8;}
	.st10{fill:#D6D6C8;}
	.st11{fill:#ED4246;}
	.st12{fill:#EDE253;}
	.st13{fill:#9BD153;}
	.st14{fill:#D4D4C3;}
	.st15{opacity:0.1;}
	.st16{fill:#DAFFFA;}
	.st17{filter:url(#Adobe_OpacityMaskFilter);}
	.st18{filter:url(#Adobe_OpacityMaskFilter_1_);}
	.st19{mask:url(#SVGID_5_);fill:url(#SVGID_6_);}
	.st20{opacity:0.17;fill:url(#SVGID_7_);}
	.st21{fill:#F7FFFE;}
	.st22{fill:#FF3B66;}
</style>
<path class="st0" d="M962.7,953.2c0-9.8-201.6-17.8-450.3-17.8c-248.7,0-450.3,8-450.3,17.8C62,963,263.6,971,512.3,971
	C761.1,971,962.7,963,962.7,953.2z"/>
<g>
	<g>
		<polygon class="st1" points="617.9,800.2 391.5,800.2 373.3,930.2 636.1,930.2 		"/>
		<polygon class="st2" points="617.9,800.2 391.5,800.2 383.5,867.3 625.9,867.3 		"/>
	</g>
	<path class="st3" d="M316,944.9L316,944.9c0-11.9,9.7-21.6,21.6-21.6h334.2c11.9,0,21.6,9.7,21.6,21.6l0,0H316z"/>
</g>
<g>
	<path class="st4" d="M975.8,193.5H33.6c-4,0-7.3,3.3-7.3,7.3v609.1c0,4,3.3,7.3,7.3,7.3h942.3c4,0,7.3-3.3,7.3-7.3V200.8
		C983.1,196.7,979.8,193.5,975.8,193.5z"/>
	<g>
		<defs>
			<rect id="SVGID_1_" x="76" y="243.2" width="857.5" height="524.3"/>
		</defs>
		<use xlink:href="#SVGID_1_"  style="overflow:visible;fill:#363B3B;"/>
		<clipPath id="SVGID_2_">
			<use xlink:href="#SVGID_1_"  style="overflow:visible;"/>
		</clipPath>
		<g class="st5">
			
				<rect x="321.3" y="-14.1" transform="matrix(0.8082 0.5889 -0.5889 0.8082 369.1125 -185.1092)" class="st6" width="294.9" height="976.4"/>
			
				<rect x="597.4" y="114.7" transform="matrix(0.8082 0.5889 -0.5889 0.8082 478.267 -262.6279)" class="st6" width="89.8" height="976.4"/>
		</g>
	</g>
	<path class="st7" d="M512.3,217.3c0,4.2-3.4,7.6-7.6,7.6c-4.2,0-7.6-3.4-7.6-7.6c0-4.2,3.4-7.6,7.6-7.6
		C508.9,209.7,512.3,213.1,512.3,217.3z"/>
</g>
<g>
	<defs>
		<path id="SVGID_3_" d="M975.8,193.5H33.6c-4,0-7.3,3.3-7.3,7.3v609.1c0,4,3.3,7.3,7.3,7.3h942.3c4,0,7.3-3.3,7.3-7.3V200.8
			C983.1,196.7,979.8,193.5,975.8,193.5z"/>
	</defs>
	<clipPath id="SVGID_4_">
		<use xlink:href="#SVGID_3_"  style="overflow:visible;"/>
	</clipPath>
	<polygon class="st8" points="1229.4,573.1 834.5,178.3 178.3,671.1 654.9,1147.6 	"/>
</g>
<g>
	<g>
		<g>
			<g>
				<path class="st9" d="M867.8,693.5H139.3V170.9c0-28.3,23.9-51.2,53.4-51.2h621.7c29.5,0,53.4,22.9,53.4,51.2V693.5z"/>
			</g>
		</g>
		<rect x="139.3" y="220.5" class="st10" width="728.5" height="446.7"/>
		<ellipse class="st11" cx="200.1" cy="172.4" rx="20.9" ry="20.1"/>
		<path class="st12" d="M274,172.4c0,11.1-9.4,20.1-20.9,20.1c-11.6,0-20.9-9-20.9-20.1s9.4-20.1,20.9-20.1
			C264.7,152.3,274,161.3,274,172.4z"/>
		<path class="st13" d="M327,172.4c0,11.1-9.4,20.1-20.9,20.1c-11.6,0-20.9-9-20.9-20.1s9.4-20.1,20.9-20.1
			C317.7,152.3,327,161.3,327,172.4z"/>
		<path class="st14" d="M817.1,184.4H374.3c-6.9,0-12.6-5.4-12.6-12l0,0c0-6.6,5.6-12,12.6-12h442.8c6.9,0,12.6,5.4,12.6,12l0,0
			C829.6,179,824,184.4,817.1,184.4z"/>
		<g>
			<path class="st9" d="M884.8,113.3c-1.8,0-3.6-0.7-5-2c-2.7-2.6-2.7-6.9,0-9.5L905.6,77c2.7-2.6,7.2-2.6,10,0
				c2.7,2.6,2.7,6.9,0,9.5l-25.8,24.8C888.4,112.6,886.6,113.3,884.8,113.3z"/>
			<path class="st9" d="M935.7,148.2h-32c-3.9,0-7-3-7-6.7c0-3.7,3.2-6.7,7-6.7h32c3.9,0,7,3,7,6.7
				C942.8,145.2,939.6,148.2,935.7,148.2z"/>
			<path class="st9" d="M848.3,95.1c-3.9,0-7-3-7-6.7V57.7c0-3.7,3.2-6.7,7-6.7c3.9,0,7,3,7,6.7v30.6
				C855.4,92,852.2,95.1,848.3,95.1z"/>
		</g>
	</g>
	<polygon class="st15" points="286.7,600.2 351.5,667.2 867.8,667.2 867.8,419 747.4,302.2 	"/>
	<g>
		<g>
			<g>
				<rect x="261.9" y="280.9" class="st16" width="488.9" height="316.8"/>
			</g>
		</g>
		<defs>
			<filter id="Adobe_OpacityMaskFilter" filterUnits="userSpaceOnUse" x="261.9" y="280.9" width="488.9" height="316.8">
				<feFlood  style="flood-color:white;flood-opacity:1" result="back"/>
				<feBlend  in="SourceGraphic" in2="back" mode="normal"/>
			</filter>
		</defs>
		<mask maskUnits="userSpaceOnUse" x="261.9" y="280.9" width="488.9" height="316.8" id="SVGID_5_">
			<g class="st17">
				<defs>
					<filter id="Adobe_OpacityMaskFilter_1_" filterUnits="userSpaceOnUse" x="261.9" y="280.9" width="488.9" height="316.8">
						<feFlood  style="flood-color:white;flood-opacity:1" result="back"/>
						<feBlend  in="SourceGraphic" in2="back" mode="normal"/>
					</filter>
				</defs>
				<mask maskUnits="userSpaceOnUse" x="261.9" y="280.9" width="488.9" height="316.8" id="SVGID_5_">
				</mask>
				<linearGradient id="SVGID_6_" gradientUnits="userSpaceOnUse" x1="522.2617" y1="323.8822" x2="765.7741" y2="481.6485">
					<stop  offset="0" style="stop-color:#FFFFFF"/>
					<stop  offset="1" style="stop-color:#000000"/>
				</linearGradient>
				<polygon class="st19" points="261.9,280.9 649.8,597.6 750.9,597.6 750.9,280.9 				"/>
			</g>
		</mask>
		<linearGradient id="SVGID_7_" gradientUnits="userSpaceOnUse" x1="522.2617" y1="323.8822" x2="765.7741" y2="481.6485">
			<stop  offset="0" style="stop-color:#002A6A"/>
			<stop  offset="1" style="stop-color:#001B45"/>
		</linearGradient>
		<polygon class="st20" points="261.9,280.9 649.8,597.6 750.9,597.6 750.9,280.9 		"/>
		<polygon class="st21" points="261.9,280.9 506.4,448.3 750.9,280.9 		"/>
		<g>
			<ellipse class="st22" cx="750.9" cy="280.9" rx="87.3" ry="83.7"/>
			<g>
				<path class="st6" d="M746.6,242.3h15.6v77.1h-16.8v-58.3L728.1,272l-7.8-12.9L746.6,242.3z"/>
			</g>
		</g>
	</g>
</g>
</svg>
