<?xml version="1.0" encoding="utf-8"?>
<!-- Generator: Adobe Illustrator 22.0.0, SVG Export Plug-In . SVG Version: 6.00 Build 0)  -->
<svg version="1.1" id="Layer_1" xmlns="http://www.w3.org/2000/svg" xmlns:xlink="http://www.w3.org/1999/xlink" x="0px" y="0px"
	 viewBox="0 0 1000 1000" style="enable-background:new 0 0 1000 1000;" xml:space="preserve">
<style type="text/css">
	.st0{fill:#DAABCE;}
	.st1{fill:#DDDDDD;}
	.st2{fill:#EDEDED;}
	.st3{fill:#2A3756;}
	.st4{opacity:0.3;fill:#FFFFFF;}
	.st5{opacity:0.2;fill:#FFFFFF;}
	.st6{fill:#FFFFFF;}
	.st7{fill:#C981B7;}
	.st8{opacity:0.2;fill:#4E5EAF;}
	.st9{fill:#8E297B;}
	.st10{opacity:0.98;fill:#FFFFFF;enable-background:new    ;}
	.st11{fill:#FFFFFF;stroke:#A3BBC4;stroke-width:9.578;stroke-linecap:round;stroke-miterlimit:10;}
</style>
<g>
	<path class="st0" d="M897.1,807.7C963.5,722.8,1003,616,1003,499.9c0-276.1-223.9-500-500-500S3,223.8,3,499.9
		C3,616,42.5,722.8,108.9,807.7H897.1z"/>
</g>
<g>
	<g>
		<g>
			<path class="st1" d="M43.9,863.7h914.1c15.5,0,29-8.4,36.2-20.9H7.7C15,855.2,28.5,863.7,43.9,863.7z"/>
		</g>
		<g>
			<path class="st2" d="M566.2,821.8c-3.2,4.7-8.6,7.8-14.7,7.8h-101c-6.1,0-11.5-3.1-14.7-7.8H2.1c0,7.6,2.1,14.8,5.6,20.9h986.5
				c3.6-6.2,5.6-13.3,5.6-20.9H566.2z"/>
			<path class="st1" d="M450.5,829.6h101c6.1,0,11.5-3.1,14.7-7.8H435.8C439,826.5,444.4,829.6,450.5,829.6z"/>
		</g>
	</g>
	<g>
		<path class="st3" d="M894.2,804.6c0,9.5-7.7,17.2-17.2,17.2H125.1c-9.5,0-17.2-7.7-17.2-17.2V315.4c0-9.5,7.7-17.2,17.2-17.2
			h751.9c9.5,0,17.2,7.7,17.2,17.2V804.6z"/>
		<g>
			<polygon class="st4" points="329.1,298.1 612.5,821.8 758,821.8 383.3,298.1 			"/>
			<path class="st5" d="M894.2,804.6V645.2l-185.1-347H431.2l371.9,523.7h73.8C886.4,821.8,894.2,814.1,894.2,804.6z"/>
		</g>
		<rect x="152.3" y="337.9" class="st6" width="697.4" height="444.1"/>
	</g>
	<rect x="400.8" y="509.1" class="st7" width="218.1" height="4.2"/>
	<rect x="162.5" y="403.7" class="st8" width="677.3" height="94.8"/>
	<rect x="162.2" y="353.5" class="st9" width="677.6" height="43.9"/>
	<rect x="422.6" y="373.9" class="st6" width="51.1" height="8.3"/>
	<rect x="484.1" y="373.9" class="st6" width="51.1" height="8.3"/>
	<rect x="545.6" y="373.9" class="st6" width="51.1" height="8.3"/>
	<rect x="607" y="373.9" class="st6" width="51.1" height="8.3"/>
	<rect x="668.5" y="373.9" class="st6" width="51.1" height="8.3"/>
	<g>
		<path class="st6" d="M231.3,374.6v7.8h-1.3v-7.7c0-1.1-0.3-2-0.9-2.7s-1.4-1-2.4-1c-1,0-1.9,0.3-2.6,1s-1,1.5-1,2.5v7.9h-1.3v-7.7
			c0-1.1-0.3-2-0.9-2.7s-1.4-1-2.4-1c-1,0-1.9,0.3-2.6,1s-1,1.6-1,2.6v7.7h-1.3v-12.3h1.2v1.6c0.9-1.2,2.1-1.9,3.8-1.9
			c1.9,0,3.2,0.8,3.9,2.4c0.9-1.6,2.3-2.4,4.3-2.4c1.4,0,2.4,0.4,3.2,1.3C230.9,372,231.3,373.2,231.3,374.6z"/>
		<path class="st6" d="M241.8,370.1h1.4l-6.1,14.3c-0.4,1-1,1.7-1.6,2.2s-1.4,0.7-2.2,0.7c-0.6,0-1.2-0.1-1.7-0.2v-1.1
			c0.5,0.1,1,0.2,1.5,0.2c1.3,0,2.3-0.7,2.9-2.1l0.8-1.8l-5.3-12h1.4l4.6,10.6L241.8,370.1z"/>
		<polygon class="st6" points="262,369.9 264.9,369.9 259.3,382.7 258.4,382.7 254.4,374.3 250.5,382.7 249.6,382.7 244.1,369.9 
			246.9,369.9 250.2,378 254,369.6 254.9,369.6 258.8,378 		"/>
		<path class="st6" d="M265.9,382.4v-12.5h2.7v12.5H265.9L265.9,382.4z M266,366.5c-0.3-0.3-0.5-0.8-0.5-1.2c0-0.5,0.2-0.9,0.5-1.3
			c0.3-0.3,0.8-0.5,1.3-0.5c0.5,0,0.9,0.2,1.3,0.5s0.5,0.8,0.5,1.3s-0.2,0.9-0.5,1.2c-0.3,0.3-0.8,0.5-1.3,0.5
			C266.8,367,266.3,366.8,266,366.5z"/>
		<path class="st6" d="M269.6,380.2l1.5-1.7c1.1,1.2,2.3,1.8,3.5,1.8c0.6,0,1.1-0.1,1.5-0.4c0.4-0.2,0.6-0.6,0.6-1
			c0-0.3-0.1-0.6-0.4-0.8c-0.3-0.2-0.7-0.5-1.4-0.7l-1.3-0.5c-1.1-0.5-2-1-2.5-1.5c-0.5-0.5-0.8-1.2-0.8-2.1c0-1.1,0.4-2,1.2-2.6
			c0.8-0.7,1.9-1,3.2-1c1.8,0,3.3,0.7,4.3,1.9l-1.5,1.7c-0.8-0.9-1.8-1.3-2.9-1.3s-1.7,0.4-1.7,1.2c0,0.3,0.1,0.6,0.3,0.8
			s0.7,0.4,1.3,0.7l1.2,0.5c1.2,0.5,2.1,1,2.6,1.6c0.5,0.6,0.8,1.3,0.8,2.2c0,1.2-0.4,2.1-1.3,2.8c-0.9,0.7-2,1-3.3,1
			C272.5,382.7,270.8,381.9,269.6,380.2z"/>
		<path class="st6" d="M291.3,374.6v7.8h-2.7v-7.4c0-0.9-0.2-1.6-0.7-2.1c-0.5-0.5-1.2-0.8-2-0.8c-0.8,0-1.5,0.3-2.1,0.8
			s-0.8,1.2-0.8,2.1v7.4h-2.7v-19.1h2.7v7.9c0.9-1,2.1-1.5,3.6-1.5c1.4,0,2.5,0.5,3.4,1.4C290.9,371.9,291.3,373.1,291.3,374.6z"/>
		<rect x="292.7" y="363.3" class="st6" width="2.7" height="19.1"/>
		<path class="st6" d="M296.8,382.4v-12.5h2.7v12.5H296.8L296.8,382.4z M296.8,366.5c-0.3-0.3-0.5-0.8-0.5-1.2
			c0-0.5,0.2-0.9,0.5-1.3c0.3-0.3,0.8-0.5,1.3-0.5c0.5,0,0.9,0.2,1.3,0.5c0.3,0.3,0.5,0.8,0.5,1.3s-0.2,0.9-0.5,1.2
			c-0.3,0.3-0.8,0.5-1.3,0.5C297.6,367,297.2,366.8,296.8,366.5z"/>
		<path class="st6" d="M300.4,380.2l1.5-1.7c1.1,1.2,2.3,1.8,3.5,1.8c0.6,0,1.1-0.1,1.5-0.4c0.4-0.2,0.6-0.6,0.6-1
			c0-0.3-0.1-0.6-0.4-0.8s-0.7-0.5-1.4-0.7l-1.3-0.5c-1.1-0.5-2-1-2.5-1.5c-0.5-0.5-0.8-1.2-0.8-2.1c0-1.1,0.4-2,1.2-2.6
			c0.8-0.7,1.9-1,3.2-1c1.8,0,3.3,0.7,4.3,1.9l-1.5,1.7c-0.8-0.9-1.8-1.3-2.9-1.3c-1.1,0-1.7,0.4-1.7,1.2c0,0.3,0.1,0.6,0.3,0.8
			c0.2,0.2,0.7,0.4,1.3,0.7l1.2,0.5c1.2,0.5,2.1,1,2.6,1.6s0.8,1.3,0.8,2.2c0,1.2-0.4,2.1-1.3,2.8c-0.9,0.7-2,1-3.3,1
			C303.4,382.7,301.7,381.9,300.4,380.2z"/>
		<path class="st6" d="M319.1,380.1v2.3c-0.9,0.2-1.6,0.3-2.2,0.3c-1.5,0-2.6-0.4-3.4-1.1s-1.2-1.8-1.2-3.3v-6.1h-2v-2.3h2v-3.3h2.7
			v3.3h3.7v2.3H315v5.9c0,0.8,0.2,1.3,0.6,1.7s1,0.5,1.9,0.5C317.7,380.2,318.3,380.2,319.1,380.1z"/>
		<path class="st6" d="M330.2,374.6v7.8h-1.3v-7.7c0-1.1-0.3-2-0.9-2.6c-0.6-0.7-1.5-1-2.5-1c-1.1,0-2,0.3-2.6,1
			c-0.7,0.7-1,1.5-1,2.6v7.7h-1.3v-12.3h1.2v1.7c0.9-1.3,2.2-1.9,3.9-1.9c1.4,0,2.5,0.4,3.3,1.3C329.8,372,330.2,373.2,330.2,374.6z
			"/>
		<path class="st6" d="M342.2,370.1h1.2v11.2c0,1.8-0.5,3.3-1.6,4.3c-1.1,1.1-2.5,1.6-4.3,1.6c-2.3,0-4.2-0.8-5.7-2.4l0.8-0.9
			c1.4,1.4,3,2.1,4.8,2.1c1.4,0,2.5-0.4,3.4-1.2s1.3-2,1.3-3.4v-1.6c-0.5,0.8-1.2,1.4-2.1,1.9c-0.9,0.5-1.9,0.7-2.9,0.7
			c-1.7,0-3.2-0.6-4.3-1.8c-1.2-1.2-1.8-2.7-1.8-4.5c0-1.7,0.6-3.2,1.8-4.4s2.6-1.8,4.3-1.8c1.1,0,2.1,0.2,3,0.7
			c0.9,0.5,1.6,1.1,2.1,2L342.2,370.1L342.2,370.1z M342.1,376.1c0-1.6-0.5-2.8-1.4-3.7s-2.1-1.3-3.4-1.3c-1.4,0-2.6,0.5-3.5,1.5
			c-0.9,1-1.4,2.2-1.4,3.6c0,1.4,0.5,2.6,1.4,3.6c0.9,1,2.1,1.5,3.5,1.5c1.4,0,2.5-0.4,3.4-1.3C341.7,378.9,342.1,377.7,342.1,376.1
			z"/>
		<path class="st6" d="M214,366.5v-3.9h0.3v3.9H214L214,366.5z M216.8,366.1c-0.1,0.2-0.3,0.3-0.4,0.3c-0.2,0.1-0.3,0.1-0.5,0.1
			c-0.3,0-0.5-0.1-0.7-0.3s-0.2-0.4-0.2-0.8v-1.6h0.3v1.4c0,0.3,0,0.5,0.2,0.7s0.3,0.2,0.5,0.2c0.2,0,0.3,0,0.5-0.1
			c0.2-0.1,0.3-0.2,0.4-0.4v-1.8h0.3v2.6h-0.3L216.8,366.1L216.8,366.1z M217.4,366.5l1-1.3l-1-1.3h0.3l0.9,1l0.9-1h0.3l-1,1.3
			l1.1,1.3h-0.4l-0.9-1.1l-0.9,1.1H217.4L217.4,366.5z M222,366.1c-0.1,0.2-0.3,0.3-0.4,0.3c-0.2,0.1-0.3,0.1-0.5,0.1
			c-0.3,0-0.5-0.1-0.7-0.3s-0.2-0.4-0.2-0.8v-1.6h0.3v1.4c0,0.3,0,0.5,0.2,0.7s0.3,0.2,0.5,0.2c0.2,0,0.3,0,0.5-0.1
			c0.2-0.1,0.3-0.2,0.4-0.4v-1.8h0.3v2.6H222L222,366.1L222,366.1z M223,366.5v-2.6h0.3v0.6c0.2-0.2,0.3-0.4,0.4-0.5
			s0.3-0.2,0.4-0.2c0.1,0,0.2,0,0.2,0s0.2,0.1,0.2,0.2l-0.2,0.3c-0.1-0.1-0.2-0.1-0.2-0.1s-0.1,0-0.2,0c-0.1,0-0.2,0.1-0.3,0.2
			s-0.3,0.3-0.4,0.5v1.6L223,366.5L223,366.5z M225.6,366l-0.9,1.8h0.3l1.9-3.9h-0.3l-0.9,1.7l-0.9-1.7h-0.3L225.6,366L225.6,366z
			 M229.6,366.6c-0.3,0-0.5,0-0.7,0.1c-0.2,0.1-0.2,0.2-0.2,0.4c0,0.2,0.1,0.3,0.2,0.3c0.2,0.1,0.3,0.1,0.6,0.1s0.5,0,0.7-0.1
			s0.2-0.2,0.2-0.4c0-0.2-0.1-0.3-0.2-0.3C230.1,366.7,229.9,366.6,229.6,366.6L229.6,366.6z M228.9,364.8c0,0.2,0.1,0.3,0.2,0.5
			s0.3,0.2,0.5,0.2c0.2,0,0.3-0.1,0.5-0.2c0.1-0.1,0.2-0.3,0.2-0.5s-0.1-0.3-0.2-0.5s-0.3-0.2-0.5-0.2c-0.2,0-0.3,0.1-0.5,0.2
			S228.9,364.7,228.9,364.8L228.9,364.8z M229.2,365.7c-0.2-0.1-0.4-0.2-0.5-0.3s-0.2-0.3-0.2-0.5c0-0.2,0-0.3,0.1-0.4
			s0.2-0.2,0.3-0.3c0.1,0,0.2-0.1,0.3-0.1c0.1,0,0.3,0,0.5,0h1v0.2h-0.5c0.1,0.1,0.2,0.2,0.2,0.3c0,0.1,0.1,0.2,0.1,0.3
			c0,0.2-0.1,0.4-0.2,0.6s-0.3,0.3-0.6,0.3c0,0-0.1,0-0.2,0c-0.3,0.1-0.4,0.2-0.4,0.3s0.2,0.2,0.6,0.2h0c0.4,0,0.7,0.1,0.8,0.2
			s0.2,0.3,0.2,0.5c0,0.2-0.1,0.4-0.3,0.6c-0.2,0.1-0.5,0.2-0.9,0.2c-0.3,0-0.6-0.1-0.8-0.2s-0.3-0.3-0.3-0.5c0-0.2,0.1-0.3,0.2-0.4
			c0.1-0.1,0.3-0.2,0.5-0.2c-0.1,0-0.2-0.1-0.3-0.1s-0.1-0.1-0.1-0.2s0-0.2,0.1-0.3C229,365.8,229.1,365.7,229.2,365.7L229.2,365.7z
			 M231.1,363.1v-0.5h0.3v0.5H231.1L231.1,363.1z M231.1,366.5v-2.6h0.3v2.6H231.1L231.1,366.5z M232.2,366.5v-2.3h-0.4v-0.2h0.4
			v-0.3c0-0.4,0.1-0.7,0.2-0.8c0.2-0.2,0.4-0.3,0.7-0.3c0,0,0.1,0,0.1,0s0.1,0,0.2,0v0.3c0,0-0.1,0-0.1,0s-0.1,0-0.1,0
			c-0.2,0-0.4,0.1-0.5,0.2c-0.1,0.1-0.2,0.3-0.2,0.6v0.3h0.5v0.2h-0.5v2.3H232.2L232.2,366.5z M233.7,365.9v-1.7h0.7v-0.2h-0.7v-0.9
			h-0.1l-0.2,0.3v0.6h-0.6v0.2h0.5v1.7c0,0.3,0,0.4,0.1,0.5s0.2,0.2,0.5,0.2c0.1,0,0.2,0,0.2,0s0.2,0,0.2-0.1v-0.3
			c-0.1,0-0.2,0.1-0.2,0.1c-0.1,0-0.1,0-0.2,0c-0.1,0-0.2,0-0.3-0.1S233.7,366,233.7,365.9L233.7,365.9z M236.3,366.5v-2.6h0.3v0.6
			c0.2-0.2,0.3-0.4,0.4-0.5s0.3-0.2,0.4-0.2c0.1,0,0.2,0,0.2,0s0.2,0.1,0.2,0.2l-0.2,0.3c-0.1-0.1-0.2-0.1-0.2-0.1s-0.1,0-0.2,0
			c-0.1,0-0.2,0.1-0.3,0.2s-0.3,0.3-0.4,0.5v1.6L236.3,366.5L236.3,366.5z M240.3,366.2c-0.2,0.1-0.3,0.2-0.5,0.3
			c-0.2,0.1-0.3,0.1-0.5,0.1c-0.4,0-0.7-0.1-0.9-0.4c-0.2-0.3-0.3-0.6-0.3-1c0-0.4,0.1-0.7,0.3-0.9s0.5-0.3,0.9-0.3
			c0.3,0,0.6,0.1,0.8,0.3c0.2,0.2,0.3,0.5,0.3,0.9v0h-2v0c0,0.3,0.1,0.6,0.3,0.8c0.2,0.2,0.4,0.3,0.7,0.3c0.2,0,0.3,0,0.5-0.1
			c0.2-0.1,0.3-0.2,0.5-0.3L240.3,366.2L240.3,366.2z M238.3,364.9h1.6c0-0.2-0.1-0.4-0.3-0.5c-0.2-0.1-0.3-0.2-0.5-0.2
			c-0.2,0-0.4,0.1-0.5,0.2C238.5,364.5,238.4,364.6,238.3,364.9L238.3,364.9z M241.7,366.6c-0.3,0-0.5,0-0.7,0.1
			c-0.2,0.1-0.2,0.2-0.2,0.4c0,0.2,0.1,0.3,0.2,0.3c0.2,0.1,0.3,0.1,0.6,0.1s0.5,0,0.7-0.1s0.2-0.2,0.2-0.4c0-0.2-0.1-0.3-0.2-0.3
			C242.3,366.7,242,366.6,241.7,366.6L241.7,366.6z M241.1,364.8c0,0.2,0.1,0.3,0.2,0.5s0.3,0.2,0.5,0.2s0.3-0.1,0.5-0.2
			s0.2-0.3,0.2-0.5s-0.1-0.3-0.2-0.5s-0.3-0.2-0.5-0.2s-0.3,0.1-0.5,0.2S241.1,364.7,241.1,364.8L241.1,364.8z M241.4,365.7
			c-0.2-0.1-0.4-0.2-0.5-0.3s-0.2-0.3-0.2-0.5c0-0.2,0-0.3,0.1-0.4s0.2-0.2,0.3-0.3c0.1,0,0.2-0.1,0.3-0.1c0.1,0,0.3,0,0.5,0h1v0.2
			h-0.5c0.1,0.1,0.2,0.2,0.2,0.3c0,0.1,0.1,0.2,0.1,0.3c0,0.2-0.1,0.4-0.2,0.6s-0.3,0.3-0.6,0.3c0,0-0.1,0-0.2,0
			c-0.3,0.1-0.4,0.2-0.4,0.3s0.2,0.2,0.6,0.2h0c0.4,0,0.7,0.1,0.8,0.2s0.2,0.3,0.2,0.5c0,0.2-0.1,0.4-0.3,0.6
			c-0.2,0.1-0.5,0.2-0.9,0.2c-0.3,0-0.6-0.1-0.8-0.2c-0.2-0.1-0.3-0.3-0.3-0.5c0-0.2,0.1-0.3,0.2-0.4c0.1-0.1,0.3-0.2,0.5-0.2
			c-0.1,0-0.2-0.1-0.3-0.1s-0.1-0.1-0.1-0.2s0-0.2,0.1-0.3C241.1,365.8,241.2,365.7,241.4,365.7L241.4,365.7z M243.3,363.1v-0.5h0.3
			v0.5H243.3L243.3,363.1z M243.3,366.5v-2.6h0.3v2.6H243.3L243.3,366.5z M244.1,366c0.1,0.1,0.3,0.2,0.4,0.2s0.3,0.1,0.4,0.1
			c0.2,0,0.3,0,0.4-0.1c0.1-0.1,0.2-0.2,0.2-0.3c0-0.2-0.2-0.4-0.5-0.5c-0.1,0-0.2-0.1-0.2-0.1c-0.2-0.1-0.3-0.2-0.4-0.3
			c-0.1-0.1-0.2-0.3-0.2-0.4c0-0.2,0.1-0.4,0.2-0.5s0.3-0.2,0.6-0.2c0.1,0,0.2,0,0.3,0c0.1,0,0.2,0.1,0.4,0.2v0.3
			c-0.1-0.1-0.3-0.2-0.4-0.2c-0.1,0-0.2-0.1-0.3-0.1c-0.2,0-0.3,0-0.4,0.1c-0.1,0.1-0.2,0.2-0.2,0.3c0,0.1,0,0.2,0.1,0.3
			c0.1,0.1,0.3,0.2,0.5,0.2c0.3,0.1,0.4,0.2,0.5,0.3c0.1,0.1,0.2,0.2,0.2,0.4c0,0.2-0.1,0.4-0.2,0.5c-0.2,0.1-0.4,0.2-0.6,0.2
			c-0.1,0-0.3,0-0.4-0.1c-0.1,0-0.2-0.1-0.4-0.2V366L244.1,366z M246.7,365.9c0,0.2,0,0.3,0.1,0.3s0.1,0.1,0.3,0.1
			c0.1,0,0.1,0,0.2,0c0.1,0,0.2,0,0.2-0.1v0.3c-0.1,0-0.2,0.1-0.2,0.1c-0.1,0-0.2,0-0.2,0c-0.2,0-0.4,0-0.5-0.2s-0.1-0.3-0.1-0.5
			v-1.7h-0.5v-0.2h0.6v-0.6l0.2-0.3h0.1v0.9h0.7v0.2h-0.7L246.7,365.9L246.7,365.9z M247.8,366.5v-2.6h0.3v0.6
			c0.2-0.2,0.3-0.4,0.4-0.5s0.3-0.2,0.4-0.2c0.1,0,0.2,0,0.2,0s0.2,0.1,0.2,0.2l-0.2,0.3c-0.1-0.1-0.2-0.1-0.2-0.1s-0.1,0-0.2,0
			c-0.1,0-0.2,0.1-0.3,0.2s-0.3,0.3-0.4,0.5v1.6L247.8,366.5L247.8,366.5z M250.5,366l-0.9,1.8h0.3l1.9-3.9h-0.3l-0.9,1.7l-0.9-1.7
			h-0.3L250.5,366z"/>
		<path class="st10" d="M188.9,382c-1.6,0.5-2.7,0.4-3.9-0.8c-1.4-1.3-1.5-3.3-0.4-4.5c1.8-1.9,5.4-1.9,9.3-1.7
			c0.1,0.9,0.9,1.7,1.8,1.8c0.3,3.8,0.4,7.4-1.3,9.3c-1.1,1.2-3.1,1.1-4.5-0.2C188.6,384.7,188.5,383.6,188.9,382z"/>
		<path class="st10" d="M203.1,381.9c1.6,0.5,2.7,0.4,3.9-0.8c1.4-1.3,1.5-3.3,0.4-4.5c-1.8-1.9-5.5-1.9-9.4-1.7
			c-0.1,0.9-0.8,1.7-1.7,1.8c-0.3,3.8-0.4,7.4,1.3,9.2c1.1,1.2,3.1,1.1,4.5-0.2C203.4,384.7,203.5,383.6,203.1,381.9z"/>
		<path class="st10" d="M188.9,367.6c-1.6-0.5-2.7-0.4-3.9,0.8c-1.4,1.3-1.5,3.3-0.4,4.5c1.8,1.8,5.4,1.9,9.3,1.7
			c0.1-1,0.9-1.7,1.8-1.9c0.3-3.8,0.4-7.4-1.3-9.2c-1.1-1.2-3.1-1.1-4.4,0.2C188.6,364.8,188.5,366,188.9,367.6z"/>
		<path class="st10" d="M203.1,367.6c1.6-0.5,2.7-0.4,3.9,0.8c1.4,1.3,1.5,3.3,0.4,4.5c-1.8,1.9-5.5,1.9-9.4,1.7
			c-0.1-0.9-0.8-1.6-1.7-1.8c-0.3-3.8-0.4-7.4,1.3-9.3c1.1-1.2,3.1-1.1,4.5,0.2C203.4,364.8,203.5,366,203.1,367.6z"/>
	</g>
	<rect x="388.7" y="517.8" class="st7" width="244.5" height="4.2"/>
	<g>
		<rect x="162.5" y="533.2" class="st8" width="157.1" height="90.6"/>
		<rect x="682.7" y="533.2" class="st8" width="157.1" height="90.6"/>
		<rect x="335.9" y="533.2" class="st8" width="157.1" height="90.6"/>
		<rect x="509.3" y="533.2" class="st8" width="157.1" height="90.6"/>
	</g>
	<g>
		<rect x="162.5" y="642.5" class="st8" width="157.1" height="90.6"/>
		<rect x="682.7" y="642.5" class="st8" width="157.1" height="90.6"/>
		<rect x="335.9" y="642.5" class="st8" width="157.1" height="90.6"/>
		<rect x="509.3" y="642.5" class="st8" width="157.1" height="90.6"/>
	</g>
	<g>
		<rect x="162.5" y="751.8" class="st8" width="157.1" height="30.4"/>
		<rect x="682.7" y="751.8" class="st8" width="157.1" height="30.4"/>
		<rect x="335.9" y="751.8" class="st8" width="157.1" height="30.4"/>
		<rect x="509.3" y="751.8" class="st8" width="157.1" height="30.4"/>
	</g>
	<g>
		<path class="st6" d="M980.7,890.5c0,9.7-7.9,17.5-17.6,17.5l-41.2,0h-97c-9.7,0-17.6-7.9-17.6-17.6V693.5
			c0-9.7,7.9-17.6,17.6-17.6h138.3c9.7,0,17.6,7.9,17.6,17.6v154L980.7,890.5z"/>
		<g>
			<line class="st11" x1="847.9" y1="835.4" x2="905.8" y2="835.4"/>
			<line class="st11" x1="918.9" y1="835.4" x2="939.7" y2="835.4"/>
			<line class="st11" x1="847.9" y1="854.2" x2="939.7" y2="854.2"/>
			<line class="st11" x1="847.9" y1="872.9" x2="939.7" y2="872.9"/>
		</g>
		<g>
			<line class="st11" x1="847.9" y1="773.3" x2="905.8" y2="773.3"/>
			<line class="st11" x1="918.9" y1="773.3" x2="939.7" y2="773.3"/>
			<line class="st11" x1="847.9" y1="792.1" x2="939.7" y2="792.1"/>
			<line class="st11" x1="847.9" y1="810.9" x2="939.7" y2="810.9"/>
		</g>
		<g>
			<line class="st11" x1="848" y1="711.2" x2="905.9" y2="711.2"/>
			<line class="st11" x1="919" y1="711.2" x2="939.8" y2="711.2"/>
			<line class="st11" x1="848" y1="730" x2="939.8" y2="730"/>
			<line class="st11" x1="848" y1="748.8" x2="939.8" y2="748.8"/>
		</g>
		<rect x="840.7" y="699" class="st9" width="106.2" height="61.2"/>
	</g>
</g>
</svg>
