<?xml version="1.0" encoding="utf-8"?>
<!-- Generator: Adobe Illustrator 22.0.0, SVG Export Plug-In . SVG Version: 6.00 Build 0)  -->
<svg version="1.1" id="Layer_1" xmlns="http://www.w3.org/2000/svg" xmlns:xlink="http://www.w3.org/1999/xlink" x="0px" y="0px"
	 viewBox="0 0 100 100" style="enable-background:new 0 0 100 100;" xml:space="preserve">
<style type="text/css">
	.st0{fill:#E3C5C7;}
	.st1{fill:#6F355E;}
	.st2{fill:#F5E8D6;}
	.st3{fill:#A96097;}
	.st4{fill:#E8994A;}
</style>
<g>
	<circle class="st0" cx="50" cy="50" r="49"/>
</g>
<rect x="28" y="40.1" class="st1" width="16" height="33.4"/>
<g>
	<path class="st2" d="M11.7,62.2v2.7c0,2,1.6,3.6,3.6,3.6h3.5v2.1h17.8V56.3H18.8v2.3h-3.5C13.3,58.6,11.7,60.2,11.7,62.2z
		 M13.7,62.5c0-1.2,1-2.1,2.1-2.1h1.7c1.2,0,1.3,0.3,1.3,1.2v3.8c0,0.9-0.2,1.2-1.3,1.2h-1.7c-1.2,0-2.1-1-2.1-2.1V62.5z"/>
</g>
<g>
	<path class="st2" d="M18.9,70.6c0.9,0.7,1,1.7,1.5,2.8H35c0.5-1.1,0.6-2.1,1.5-2.8H18.9z"/>
</g>
<path class="st3" d="M31.3,45.8c0,1.8-1.5,3.3-3.3,3.3l0,0c-1.8,0-3.3-1.5-3.3-3.3v-9.1c0-1.8,1.5-3.3,3.3-3.3l0,0
	c1.8,0,3.3,1.5,3.3,3.3V45.8z"/>
<rect x="21.3" y="38.9" class="st1" width="19.4" height="4.6"/>
<path class="st3" d="M38.6,19.4C27.2,19.4,18,28.7,18,40.1h25.3v33.2H18v7.2h41.3V40.1C59.2,28.7,50,19.4,38.6,19.4z"/>
<path class="st1" d="M28,22.4C22,26,18,32.5,18,40.1H28V22.4z"/>
<path class="st2" d="M48.6,36.7H13.2c-0.7,0-1.3-0.6-1.3-1.3c0-0.7,0.6-1.3,1.3-1.3h35.4c0.7,0,1.3,0.6,1.3,1.3
	C49.8,36.2,49.3,36.7,48.6,36.7L48.6,36.7z"/>
<path class="st2" d="M52,35.5c0-1.9-1.5-3.4-3.4-3.4c-1.9,0-3.4,1.5-3.4,3.4c0,1.9,1.5,3.4,3.4,3.4C50.5,38.9,52,37.3,52,35.5z"/>
<rect x="47.3" y="34.2" transform="matrix(0.7072 -0.707 0.707 0.7072 -10.8457 44.7137)" class="st1" width="2.6" height="2.6"/>
<path class="st1" d="M56.1,80.4v-7.7c0-0.5,0.4-0.9,0.9-0.9c0.5,0,0.9,0.4,0.9,0.9v7.7H56.1z"/>
<path class="st1" d="M53,80.4v-7.7c0-0.5,0.4-0.9,0.9-0.9c0.5,0,0.9,0.4,0.9,0.9v7.7H53z"/>
<path class="st1" d="M49.9,80.4v-7.7c0-0.5,0.4-0.9,0.9-0.9c0.5,0,0.9,0.4,0.9,0.9v7.7H49.9z"/>
<rect x="18" y="73.3" class="st1" width="10.1" height="7.2"/>
<rect x="20.2" y="80.4" class="st1" width="36.7" height="2.1"/>
<g>
	<path class="st3" d="M63.9,46.8l0,36.6c2.4-1.4,4-4,4-6.9l0-25.3c0-1.1,0.6-2.1,1.6-2.6l0-1.8L63.9,46.8z"/>
</g>
<g>
	<g>
		<path class="st2" d="M63.9,72.8l4,4c0-0.1,0-0.2,0-0.3v-5.7l-4-4L63.9,72.8z"/>
	</g>
	<g>
		<path class="st2" d="M67.8,78l-3.8-3.8l0,2.7l3.2,3.2C67.4,79.4,67.6,78.8,67.8,78z"/>
	</g>
	<g>
		<polygon class="st2" points="63.9,55.7 63.9,56.8 67.9,60.8 67.9,59.7 		"/>
	</g>
	<g>
		<polygon class="st2" points="63.9,51.6 63.9,54.3 67.9,58.3 67.9,55.6 		"/>
	</g>
</g>
<g>
	<path class="st1" d="M63.5,25.9l0,21.8h6v-2.5c-1.3-0.7-2.2-2-2.2-3.6V25.9c0-1.1-0.9-1.9-1.9-1.9C64.4,24,63.5,24.9,63.5,25.9z"/>
</g>
<g>
	<path class="st4" d="M65.4,25.6c-0.4,0-0.6,0.3-0.6,0.6c0,0.4,0.3,0.6,0.6,0.6c0.4,0,0.6-0.3,0.6-0.7C66,25.9,65.8,25.6,65.4,25.6z
		"/>
</g>
<g>
	<path class="st4" d="M65.4,43.9c-0.4,0-0.6,0.3-0.6,0.6c0,0.4,0.3,0.6,0.6,0.6c0.4,0,0.6-0.3,0.6-0.6C66,44.2,65.8,43.9,65.4,43.9z
		"/>
</g>
<g>
	<polygon class="st3" points="63.9,47.7 64.8,48.6 69.5,48.6 69.5,47.7 	"/>
</g>
<g>
	<path class="st1" d="M75.3,79l0-21.8h6l0,2.5c-1.3,0.7-2.2,2-2.2,3.6l0,15.8c0,1.1-0.9,1.9-1.9,1.9C76.2,81,75.3,80.1,75.3,79z"/>
</g>
<g>
	<path class="st4" d="M77.2,79.3c-0.4,0-0.7-0.3-0.7-0.7c0-0.4,0.3-0.6,0.6-0.6c0.4,0,0.6,0.3,0.6,0.7C77.9,79,77.6,79.3,77.2,79.3z
		"/>
</g>
<g>
	<path class="st4" d="M77.2,61.1c-0.4,0-0.6-0.3-0.7-0.6c0-0.4,0.3-0.7,0.6-0.7c0.4,0,0.6,0.3,0.6,0.7
		C77.9,60.8,77.6,61.1,77.2,61.1z"/>
</g>
<g>
	<path class="st3" d="M83.6,54.8c-1.4,0-2.5,1.1-2.6,2.4h-5.6l0-29.5c0-2.5,2.1-4.6,4.6-4.6h8.7v31.6H83.6z"/>
</g>
<g>
	<g>
		<polygon class="st2" points="88.6,23.2 88.6,24.6 75.3,37.9 75.3,34.8 86.9,23.2 		"/>
	</g>
	<g>
		<polygon class="st2" points="75.3,46.3 75.3,39.4 88.6,26.1 88.6,33 		"/>
	</g>
	<g>
		<polygon class="st2" points="75.3,55.3 75.3,52.2 88.6,38.9 88.6,42 		"/>
	</g>
	<g>
		<polygon class="st2" points="75.3,50.7 75.3,49.4 88.6,36.1 88.6,37.4 		"/>
	</g>
</g>
</svg>
