<?xml version="1.0" encoding="utf-8"?>
<!-- Generator: Adobe Illustrator 22.0.0, SVG Export Plug-In . SVG Version: 6.00 Build 0)  -->
<svg version="1.1" id="Layer_1" xmlns="http://www.w3.org/2000/svg" xmlns:xlink="http://www.w3.org/1999/xlink" x="0px" y="0px"
	 viewBox="0 0 747.9 139.3" style="enable-background:new 0 0 747.9 139.3;" xml:space="preserve">
<style type="text/css">
	.st0{fill-rule:evenodd;clip-rule:evenodd;fill:#8C2579;}
	.st1{opacity:0.98;fill-rule:evenodd;clip-rule:evenodd;fill:#651652;}
	.st2{opacity:0.98;fill-rule:evenodd;clip-rule:evenodd;fill:#8C2579;}
	.st3{opacity:0.98;fill-rule:evenodd;clip-rule:evenodd;fill:#C77EB5;}
	.st4{opacity:0.98;fill-rule:evenodd;clip-rule:evenodd;fill:#A55491;}
</style>
<g>
	<path class="st0" d="M223.5,72v35.6h-6V72.4c0-5.1-1.3-9.2-4-12.3c-2.7-3.1-6.3-4.6-10.9-4.6c-4.7,0-8.6,1.6-11.7,4.7
		c-3.1,3.1-4.7,6.9-4.7,11.3v36.1h-5.8V72.4c0-5.1-1.3-9.2-4-12.3c-2.7-3.1-6.4-4.6-11-4.6c-4.8,0-8.8,1.6-11.8,4.8
		c-3,3.2-4.6,7.2-4.6,12.1v35.2h-5.8V51.2h5.6v7.4c3.9-5.7,9.7-8.5,17.4-8.5c8.7,0,14.6,3.7,17.8,11c4.2-7.3,10.7-11,19.5-11
		c6.2,0,11.1,2,14.7,6C221.7,59.9,223.5,65.3,223.5,72z"/>
	<path class="st0" d="M271.7,51.2h6.3l-28.1,65.6c-2,4.6-4.5,7.9-7.3,9.9c-2.8,2-6.3,3-10.3,3c-2.7,0-5.4-0.4-7.9-1.1v-5.1
		c2.3,0.5,4.6,0.8,7.1,0.8c6.1,0,10.4-3.2,13.1-9.7l3.6-8.3l-24.2-55.2h6.4l20.9,48.6L271.7,51.2z"/>
	<polygon class="st0" points="364.4,50.3 377.5,50.3 352,108.9 347.8,108.9 329.8,70.7 311.9,108.9 307.7,108.9 282.2,50.3 
		295.3,50.3 310.3,87.7 327.7,49 331.9,49 349.6,87.3 	"/>
	<path class="st0" d="M382.4,107.6V50.3h12.3v57.3H382.4L382.4,107.6z M382.6,34.6c-1.6-1.6-2.5-3.5-2.5-5.7c0-2.3,0.8-4.2,2.5-5.8
		c1.6-1.6,3.6-2.4,6-2.4c2.3,0,4.2,0.8,5.8,2.4c1.6,1.6,2.5,3.5,2.5,5.8c0,2.3-0.8,4.2-2.5,5.7c-1.6,1.6-3.6,2.3-5.8,2.3
		C386.3,36.9,384.3,36.2,382.6,34.6z"/>
	<path class="st0" d="M399.1,97.8l7-7.7c5.2,5.4,10.6,8.2,16.1,8.2c2.7,0,4.9-0.6,6.7-1.7c1.7-1.1,2.6-2.7,2.6-4.7
		c0-1.6-0.6-2.8-1.8-3.8c-1.2-1-3.3-2.1-6.3-3.3l-5.8-2.5c-5.2-2.2-9-4.5-11.4-7.1c-2.4-2.5-3.6-5.7-3.6-9.6c0-5.1,1.9-9.1,5.7-12.1
		c3.8-3,8.6-4.5,14.5-4.5c8.3,0,14.9,3,19.9,8.9l-6.7,7.6c-3.7-3.9-8.2-5.8-13.4-5.8c-5.2,0-7.8,1.8-7.8,5.5c0,1.4,0.5,2.6,1.6,3.6
		c1.1,1,3.1,2,6,3.2l5.5,2.2c5.5,2.3,9.5,4.8,12,7.4c2.5,2.6,3.7,5.9,3.7,9.9c0,5.5-2,9.8-6.1,13c-4,3-9.1,4.6-15.2,4.6
		C412.5,108.9,404.8,105.2,399.1,97.8z"/>
	<path class="st0" d="M498.9,71.7v35.9h-12.3V73.5c0-4-1.1-7.2-3.4-9.6c-2.3-2.5-5.3-3.7-9.1-3.7c-3.8,0-6.9,1.2-9.4,3.7
		c-2.5,2.5-3.7,5.7-3.7,9.6v34.1h-12.3V20H461v36c4-4.7,9.5-7,16.6-7c6.5,0,11.6,2.1,15.5,6.2C497,59.4,498.9,64.9,498.9,71.7z"/>
	<rect x="505.3" y="20" class="st0" width="12.3" height="87.6"/>
	<path class="st0" d="M523.9,107.6V50.3h12.3v57.3H523.9L523.9,107.6z M524.1,34.6c-1.6-1.6-2.5-3.5-2.5-5.7c0-2.3,0.8-4.2,2.5-5.8
		c1.6-1.6,3.6-2.4,6-2.4c2.3,0,4.2,0.8,5.8,2.4c1.6,1.6,2.5,3.5,2.5,5.8c0,2.3-0.8,4.2-2.5,5.7c-1.6,1.6-3.6,2.3-5.8,2.3
		C527.7,36.9,525.8,36.2,524.1,34.6z"/>
	<path class="st0" d="M540.6,97.8l7-7.7c5.2,5.4,10.6,8.2,16.1,8.2c2.7,0,4.9-0.6,6.7-1.7c1.7-1.1,2.6-2.7,2.6-4.7
		c0-1.6-0.6-2.8-1.8-3.8c-1.2-1-3.3-2.1-6.3-3.3l-5.8-2.5c-5.2-2.2-9-4.5-11.4-7.1c-2.4-2.5-3.6-5.7-3.6-9.6c0-5.1,1.9-9.1,5.7-12.1
		c3.8-3,8.6-4.5,14.5-4.5c8.3,0,14.9,3,19.9,8.9l-6.7,7.6c-3.7-3.9-8.2-5.8-13.4-5.8c-5.2,0-7.8,1.8-7.8,5.5c0,1.4,0.5,2.6,1.6,3.6
		c1.1,1,3.1,2,6,3.2l5.5,2.2c5.5,2.3,9.5,4.8,12,7.4c2.5,2.6,3.7,5.9,3.7,9.9c0,5.5-2,9.8-6.1,13c-4,3-9.1,4.6-15.2,4.6
		C554,108.9,546.3,105.2,540.6,97.8z"/>
	<path class="st0" d="M626.1,97.2v10.4c-4,0.9-7.4,1.3-10.2,1.3c-6.7,0-11.9-1.7-15.6-5c-3.7-3.3-5.5-8.3-5.5-14.9v-28h-9.3V50.3
		h9.3V35.2h12.4v15.1h17.1v10.6h-17.1v27c0,3.6,0.9,6.1,2.7,7.6c1.8,1.5,4.7,2.3,8.6,2.3C619.9,97.8,622.4,97.6,626.1,97.2z"/>
	<path class="st0" d="M676.8,72v35.6H671V72.3c0-5-1.4-9-4.3-12.1c-2.8-3.1-6.7-4.7-11.5-4.7c-4.9,0-9,1.6-12.1,4.8
		c-3.1,3.1-4.7,7.1-4.7,12v35.3h-5.8V51.2h5.6v7.6c4-5.8,10-8.8,18-8.8c6.4,0,11.4,2,15.1,6C675,60,676.8,65.4,676.8,72z"/>
	<path class="st0" d="M731.9,51.2h5.6v51.4c0,8.3-2.5,14.9-7.5,19.9c-5,4.9-11.5,7.4-19.5,7.4c-10.6,0-19.2-3.7-25.9-11l3.6-4
		c6.3,6.3,13.7,9.5,22.2,9.5c6.5,0,11.6-1.9,15.5-5.7c3.9-3.8,5.8-9.1,5.8-15.8v-7.5c-2.2,3.7-5.3,6.6-9.5,8.8
		c-4.1,2.2-8.6,3.3-13.4,3.3c-7.9,0-14.5-2.8-19.9-8.3c-5.4-5.6-8.1-12.4-8.1-20.4c0-8,2.7-14.8,8.1-20.3c5.4-5.5,12-8.3,19.9-8.3
		c4.9,0,9.5,1.1,13.7,3.3c4.2,2.2,7.4,5.2,9.5,9.1V51.2L731.9,51.2z M731.7,78.6c0-7.3-2.1-13-6.4-17c-4.3-4-9.5-6-15.6-6
		c-6.5,0-11.9,2.2-16.2,6.7c-4.3,4.4-6.5,9.9-6.5,16.5c0,6.5,2.2,12,6.5,16.5c4.3,4.4,9.7,6.7,16.2,6.7c6.2,0,11.4-2,15.6-6.1
		C729.5,91.8,731.7,86,731.7,78.6z"/>
	<path class="st0" d="M144.4,34.8V16.9h1.3v17.9H144.4L144.4,34.8z M157.2,33c-0.6,0.7-1.2,1.2-1.9,1.6c-0.7,0.3-1.4,0.5-2.2,0.5
		c-1.3,0-2.4-0.4-3.1-1.2c-0.7-0.8-1.1-2-1.1-3.5V23h1.3v6.6c0,1.4,0.2,2.5,0.7,3.2c0.5,0.7,1.3,1,2.3,1c0.8,0,1.6-0.2,2.2-0.6
		c0.7-0.4,1.2-1,1.7-1.8V23h1.3v11.8h-1.3V33L157.2,33z M160,34.8l4.7-6l-4.6-5.8h1.6l3.9,4.8l3.9-4.8h1.5l-4.6,5.8l4.9,6h-1.7
		l-4.1-5.1l-4.1,5.1H160L160,34.8z M181.1,33c-0.6,0.7-1.2,1.2-1.9,1.6c-0.7,0.3-1.4,0.5-2.2,0.5c-1.3,0-2.4-0.4-3.1-1.2
		c-0.7-0.8-1.1-2-1.1-3.5V23h1.3v6.6c0,1.4,0.2,2.5,0.7,3.2c0.5,0.7,1.3,1,2.3,1c0.8,0,1.6-0.2,2.2-0.6c0.7-0.4,1.2-1,1.7-1.8V23
		h1.3v11.8h-1.3V33L181.1,33z M185.7,34.8V23h1.3v2.9c0.7-1.1,1.4-1.9,2-2.4c0.6-0.5,1.2-0.7,1.9-0.7c0.4,0,0.7,0.1,1,0.2
		c0.3,0.1,0.7,0.4,1.1,0.7l-0.7,1.3c-0.4-0.3-0.7-0.5-1-0.6c-0.3-0.1-0.6-0.2-0.9-0.2c-0.5,0-1.1,0.3-1.6,0.8
		c-0.5,0.5-1.2,1.3-1.8,2.5v7.5H185.7L185.7,34.8z M197.7,32.5l-4,8.3h1.3l8.7-17.8h-1.4l-3.9,8l-4.2-8h-1.5L197.7,32.5L197.7,32.5z
		 M215.8,35.4c-1.3,0-2.4,0.2-3,0.6c-0.7,0.4-1,0.9-1,1.7c0,0.7,0.3,1.2,1,1.5c0.7,0.4,1.6,0.5,2.9,0.5c1.3,0,2.4-0.2,3.1-0.6
		c0.7-0.4,1-0.9,1-1.7c0-0.7-0.3-1.2-1-1.6C218.2,35.6,217.2,35.4,215.8,35.4L215.8,35.4z M212.6,27.2c0,0.8,0.3,1.6,0.9,2.2
		c0.6,0.6,1.3,0.9,2.2,0.9c0.9,0,1.6-0.3,2.2-0.9c0.6-0.6,0.9-1.3,0.9-2.2s-0.3-1.6-0.9-2.2c-0.6-0.6-1.3-0.9-2.2-0.9
		c-0.9,0-1.6,0.3-2.2,0.9C212.9,25.6,212.6,26.4,212.6,27.2L212.6,27.2z M214.2,31.1c-1-0.4-1.7-0.9-2.2-1.6
		c-0.5-0.7-0.7-1.5-0.7-2.4c0-0.7,0.2-1.4,0.6-2c0.4-0.6,0.9-1.1,1.6-1.6c0.3-0.2,0.8-0.4,1.2-0.5c0.5-0.1,1.2-0.1,2.1-0.1h4.4v1.1
		h-2.5c0.5,0.5,0.8,0.9,1.1,1.4c0.2,0.5,0.3,1,0.3,1.6c0,1.1-0.3,1.9-0.9,2.6c-0.6,0.7-1.6,1.2-2.9,1.6c-0.2,0.1-0.5,0.1-0.9,0.2
		c-1.4,0.3-2,0.8-2,1.4c0,0.6,0.9,1,2.8,1.1l0.1,0c1.8,0.2,3.1,0.5,3.8,1c0.7,0.5,1,1.2,1,2.2c0,1.1-0.5,2-1.3,2.6
		c-0.9,0.6-2.3,0.8-4.1,0.8c-1.6,0-2.9-0.3-3.8-0.8c-0.9-0.5-1.3-1.3-1.3-2.3c0-0.8,0.3-1.4,0.8-1.9c0.6-0.5,1.3-0.8,2.3-1
		c-0.5-0.1-0.9-0.3-1.2-0.6c-0.3-0.3-0.4-0.6-0.4-1c0-0.4,0.2-0.8,0.5-1.2C213.1,31.6,213.6,31.3,214.2,31.1L214.2,31.1z M223,19.1
		v-2.2h1.3v2.2H223L223,19.1z M223,34.8V23h1.3v11.8H223L223,34.8z M227.7,34.8V24.1h-2V23h2v-1.3c0-1.7,0.3-3,1-3.8
		c0.7-0.8,1.7-1.2,3.1-1.2c0.2,0,0.4,0,0.6,0c0.2,0,0.4,0.1,0.7,0.1V18c-0.2,0-0.4-0.1-0.6-0.1c-0.2,0-0.4,0-0.6,0
		c-1,0-1.7,0.3-2.2,0.8c-0.4,0.5-0.7,1.4-0.7,2.7V23h2.2v1.1h-2.2v10.7H227.7L227.7,34.8z M234.8,31.9v-7.8h3.2V23h-3.2v-3.9h-0.3
		l-1,1.2V23h-2.6v1.1h2.5v7.8c0,1.2,0.2,2,0.6,2.5c0.4,0.5,1.1,0.7,2.1,0.7c0.4,0,0.7,0,1.1-0.1c0.4-0.1,0.7-0.2,1.1-0.4v-1.3
		c-0.4,0.2-0.7,0.4-1.1,0.5c-0.3,0.1-0.6,0.1-0.9,0.1c-0.6,0-1-0.1-1.2-0.4C234.9,33.2,234.8,32.7,234.8,31.9L234.8,31.9z
		 M246.6,34.8V23h1.3v2.9c0.7-1.1,1.4-1.9,2-2.4c0.6-0.5,1.2-0.7,1.9-0.7c0.4,0,0.7,0.1,1,0.2c0.3,0.1,0.7,0.4,1.1,0.7l-0.7,1.3
		c-0.4-0.3-0.7-0.5-1-0.6c-0.3-0.1-0.6-0.2-0.9-0.2c-0.5,0-1.1,0.3-1.6,0.8c-0.5,0.5-1.2,1.3-1.8,2.5v7.5H246.6L246.6,34.8z
		 M264.8,33.5c-0.8,0.5-1.5,0.9-2.3,1.2c-0.7,0.3-1.5,0.4-2.3,0.4c-1.8,0-3.2-0.6-4.3-1.7c-1.1-1.2-1.6-2.7-1.6-4.6
		c0-1.8,0.5-3.2,1.5-4.3c1-1.1,2.3-1.6,4-1.6c1.5,0,2.8,0.5,3.7,1.6c0.9,1,1.4,2.4,1.4,4.1v0.1h-9.2v0.1c0,1.5,0.4,2.8,1.2,3.7
		c0.8,1,1.9,1.4,3.2,1.4c0.8,0,1.5-0.1,2.3-0.4c0.7-0.3,1.5-0.7,2.3-1.3V33.5L264.8,33.5z M256,27.4h7.5c-0.1-1-0.5-1.9-1.2-2.5
		c-0.7-0.6-1.5-0.9-2.4-0.9c-1,0-1.8,0.3-2.5,1C256.6,25.5,256.2,26.3,256,27.4L256,27.4z M271.6,35.4c-1.3,0-2.4,0.2-3,0.6
		c-0.7,0.4-1,0.9-1,1.7c0,0.7,0.3,1.2,1,1.5c0.7,0.4,1.6,0.5,2.9,0.5c1.3,0,2.4-0.2,3.1-0.6c0.7-0.4,1-0.9,1-1.7
		c0-0.7-0.3-1.2-1-1.6C273.9,35.6,272.9,35.4,271.6,35.4L271.6,35.4z M268.4,27.2c0,0.8,0.3,1.6,0.9,2.2c0.6,0.6,1.3,0.9,2.2,0.9
		c0.9,0,1.6-0.3,2.2-0.9c0.6-0.6,0.9-1.3,0.9-2.2s-0.3-1.6-0.9-2.2c-0.6-0.6-1.3-0.9-2.2-0.9c-0.9,0-1.6,0.3-2.2,0.9
		C268.7,25.6,268.4,26.4,268.4,27.2L268.4,27.2z M270,31.1c-1-0.4-1.7-0.9-2.2-1.6c-0.5-0.7-0.7-1.5-0.7-2.4c0-0.7,0.2-1.4,0.6-2
		c0.4-0.6,0.9-1.1,1.6-1.6c0.3-0.2,0.8-0.4,1.2-0.5c0.5-0.1,1.2-0.1,2.1-0.1h4.4v1.1h-2.5c0.5,0.5,0.8,0.9,1.1,1.4
		c0.2,0.5,0.3,1,0.3,1.6c0,1.1-0.3,1.9-0.9,2.6c-0.6,0.7-1.6,1.2-2.9,1.6c-0.2,0.1-0.5,0.1-0.9,0.2c-1.4,0.3-2,0.8-2,1.4
		c0,0.6,0.9,1,2.8,1.1l0.1,0c1.8,0.2,3.1,0.5,3.8,1c0.7,0.5,1,1.2,1,2.2c0,1.1-0.5,2-1.3,2.6c-0.9,0.6-2.3,0.8-4.1,0.8
		c-1.6,0-2.9-0.3-3.8-0.8c-0.9-0.5-1.3-1.3-1.3-2.3c0-0.8,0.3-1.4,0.8-1.9c0.6-0.5,1.3-0.8,2.3-1c-0.5-0.1-0.9-0.3-1.2-0.6
		c-0.3-0.3-0.4-0.6-0.4-1c0-0.4,0.2-0.8,0.5-1.2C268.8,31.6,269.3,31.3,270,31.1L270,31.1z M278.7,19.1v-2.2h1.3v2.2H278.7
		L278.7,19.1z M278.7,34.8V23h1.3v11.8H278.7L278.7,34.8z M282.6,32.7c0.6,0.4,1.2,0.7,1.8,0.9c0.6,0.2,1.2,0.3,1.8,0.3
		c0.8,0,1.4-0.2,1.8-0.5c0.4-0.4,0.7-0.8,0.7-1.5c0-0.9-0.8-1.7-2.4-2.2c-0.4-0.2-0.7-0.3-1-0.4c-0.9-0.3-1.5-0.8-2-1.3
		c-0.4-0.5-0.7-1.2-0.7-1.9c0-1,0.3-1.7,1-2.3c0.7-0.6,1.6-0.9,2.7-0.9c0.5,0,1,0.1,1.6,0.2c0.5,0.2,1.1,0.4,1.7,0.8v1.4
		c-0.6-0.4-1.2-0.7-1.7-0.9c-0.5-0.2-1.1-0.3-1.6-0.3c-0.7,0-1.3,0.2-1.7,0.6c-0.5,0.4-0.7,0.9-0.7,1.5c0,0.5,0.2,1,0.6,1.3
		c0.4,0.4,1.2,0.7,2.3,1.1c1.2,0.4,2,0.9,2.5,1.4c0.4,0.5,0.7,1.1,0.7,1.9c0,1-0.4,1.9-1,2.5c-0.7,0.6-1.7,0.9-2.9,0.9
		c-0.6,0-1.2-0.1-1.8-0.3c-0.6-0.2-1.1-0.4-1.7-0.8V32.7L282.6,32.7z M294.3,31.9c0,0.8,0.1,1.3,0.3,1.6c0.2,0.3,0.6,0.4,1.2,0.4
		c0.3,0,0.6,0,0.9-0.1c0.3-0.1,0.7-0.2,1.1-0.5v1.3c-0.4,0.2-0.7,0.3-1.1,0.4c-0.4,0.1-0.7,0.1-1.1,0.1c-1,0-1.7-0.2-2.1-0.7
		c-0.4-0.5-0.6-1.3-0.6-2.5v-7.8h-2.5V23h2.6v-2.7l1-1.2h0.3V23h3.2v1.1h-3.2V31.9L294.3,31.9z M299.5,34.8V23h1.3v2.9
		c0.7-1.1,1.4-1.9,2-2.4c0.6-0.5,1.2-0.7,1.9-0.7c0.4,0,0.7,0.1,1,0.2c0.3,0.1,0.7,0.4,1.1,0.7l-0.7,1.3c-0.4-0.3-0.7-0.5-1-0.6
		c-0.3-0.1-0.6-0.2-0.9-0.2c-0.5,0-1.1,0.3-1.6,0.8c-0.5,0.5-1.2,1.3-1.8,2.5v7.5H299.5L299.5,34.8z M311.5,32.5l-4,8.3h1.3
		l8.7-17.8h-1.4l-3.9,8l-4.2-8h-1.5L311.5,32.5z"/>
	<path class="st1" d="M29.5,105.8c-7.4,2.2-12.5,1.9-18.1-3.5c-6.2-5.9-7.1-15-2-20.4c8.1-8.5,24.8-8.7,42.5-7.9
		c0.6,4.3,4,7.7,8.4,8.3c1.5,17.5,2,34-6,42.4c-5.1,5.3-14.2,4.9-20.4-1.1C28.2,118.4,27.7,113.3,29.5,105.8z"/>
	<path class="st2" d="M94.7,105.6c7.4,2.1,12.5,1.9,18.1-3.5c6.2-5.9,7.1-15,2-20.4c-8.2-8.5-25.1-8.7-43-7.9
		c-0.5,4.2-3.7,7.6-7.9,8.4c-1.5,17.5-2,33.9,6.1,42.3c5.1,5.3,14.2,4.9,20.4-1.1C96,118.2,96.5,113.1,94.7,105.6z"/>
	<path class="st3" d="M29.5,39.8c-7.4-2.2-12.5-1.9-18.1,3.5c-6.2,5.9-7.1,15-2,20.4c8.1,8.4,24.7,8.7,42.4,7.9
		c0.5-4.4,4-7.9,8.4-8.5c1.5-17.5,1.9-33.9-6.1-42.2C49.2,15.5,40,16,33.8,21.9C28.2,27.2,27.7,32.3,29.5,39.8z"/>
	<path class="st4" d="M94.7,39.8c7.4-2.1,12.5-1.9,18.1,3.5c6.2,5.9,7.1,15,2,20.4c-8.2,8.5-25.1,8.7-43,7.9
		c-0.5-4.1-3.7-7.5-7.8-8.4c-1.5-17.5-2-34,6-42.4c5.1-5.3,14.2-4.9,20.4,1.1C96,27.2,96.5,32.3,94.7,39.8z"/>
</g>
</svg>
