<?xml version="1.0" encoding="utf-8"?>
<!-- Generator: Adobe Illustrator 22.0.0, SVG Export Plug-In . SVG Version: 6.00 Build 0)  -->
<svg version="1.1" id="Layer_1" xmlns="http://www.w3.org/2000/svg" xmlns:xlink="http://www.w3.org/1999/xlink" x="0px" y="0px"
	 viewBox="0 0 110 17.7" style="enable-background:new 0 0 110 17.7;" xml:space="preserve">
<style type="text/css">
	.st0{fill:#8C2579;}
	.st1{opacity:0.98;fill:#651652;enable-background:new    ;}
	.st2{opacity:0.98;fill:#8C2579;enable-background:new    ;}
	.st3{opacity:0.98;fill:#C77EB5;enable-background:new    ;}
	.st4{opacity:0.98;fill:#A55491;enable-background:new    ;}
</style>
<g>
	<path class="st0" d="M32.8,8.9v5.3h-0.9V9c0-0.8-0.2-1.4-0.6-1.8c-0.4-0.5-0.9-0.7-1.6-0.7c-0.7,0-1.3,0.2-1.7,0.7
		c-0.5,0.5-0.7,1-0.7,1.7v5.4h-0.9V9c0-0.8-0.2-1.4-0.6-1.8c-0.4-0.5-0.9-0.7-1.6-0.7c-0.7,0-1.3,0.2-1.7,0.7
		C22,7.7,21.8,8.3,21.8,9v5.2h-0.9V5.9h0.8V7c0.6-0.8,1.4-1.3,2.6-1.3c1.3,0,2.2,0.5,2.6,1.6c0.6-1.1,1.6-1.6,2.9-1.6
		c0.9,0,1.6,0.3,2.2,0.9C32.5,7.1,32.8,7.9,32.8,8.9z"/>
	<path class="st0" d="M40,5.9h0.9l-4.2,9.7c-0.3,0.7-0.7,1.2-1.1,1.5s-0.9,0.4-1.5,0.4c-0.4,0-0.8-0.1-1.2-0.2v-0.8
		c0.3,0.1,0.7,0.1,1.1,0.1c0.9,0,1.5-0.5,1.9-1.4l0.5-1.2l-3.6-8.2h0.9l3.1,7.2L40,5.9z"/>
	<polygon class="st0" points="53.7,5.7 55.6,5.7 51.9,14.4 51.2,14.4 48.6,8.7 45.9,14.4 45.3,14.4 41.5,5.7 43.5,5.7 45.7,11.3 
		48.3,5.5 48.9,5.5 51.5,11.2 	"/>
	<path class="st0" d="M56.4,14.2V5.7h1.8v8.5H56.4L56.4,14.2z M56.4,3.4C56.2,3.2,56,2.9,56,2.6c0-0.3,0.1-0.6,0.4-0.9
		c0.2-0.2,0.5-0.4,0.9-0.4c0.3,0,0.6,0.1,0.9,0.4c0.2,0.2,0.4,0.5,0.4,0.9s-0.1,0.6-0.4,0.8c-0.2,0.2-0.5,0.3-0.9,0.3
		C56.9,3.7,56.6,3.6,56.4,3.4z"/>
	<path class="st0" d="M58.8,12.8l1-1.1c0.8,0.8,1.6,1.2,2.4,1.2c0.4,0,0.7-0.1,1-0.3c0.3-0.2,0.4-0.4,0.4-0.7c0-0.2-0.1-0.4-0.3-0.6
		c-0.2-0.1-0.5-0.3-0.9-0.5l-0.9-0.4c-0.8-0.3-1.3-0.7-1.7-1.1C59.5,9,59.4,8.6,59.4,8c0-0.8,0.3-1.3,0.8-1.8
		c0.6-0.4,1.3-0.7,2.1-0.7c1.2,0,2.2,0.4,2.9,1.3l-1,1.1c-0.5-0.6-1.2-0.9-2-0.9c-0.8,0-1.2,0.3-1.2,0.8c0,0.2,0.1,0.4,0.2,0.5
		s0.5,0.3,0.9,0.5l0.8,0.3c0.8,0.3,1.4,0.7,1.8,1.1c0.4,0.4,0.5,0.9,0.5,1.5c0,0.8-0.3,1.5-0.9,1.9c-0.6,0.4-1.3,0.7-2.3,0.7
		C60.8,14.4,59.7,13.9,58.8,12.8z"/>
	<path class="st0" d="M73.6,8.9v5.3h-1.8V9.2c0-0.6-0.2-1.1-0.5-1.4C71,7.4,70.5,7.2,70,7.2c-0.6,0-1,0.2-1.4,0.5
		C68.2,8.1,68,8.6,68,9.2v5.1h-1.8v-13H68v5.3c0.6-0.7,1.4-1,2.5-1c1,0,1.7,0.3,2.3,0.9C73.4,7.1,73.6,7.9,73.6,8.9z"/>
	<rect x="74.6" y="1.2" class="st0" width="1.8" height="13"/>
	<path class="st0" d="M77.3,14.2V5.7h1.8v8.5H77.3L77.3,14.2z M77.4,3.4C77.1,3.2,77,2.9,77,2.6c0-0.3,0.1-0.6,0.4-0.9
		c0.2-0.2,0.5-0.4,0.9-0.4c0.3,0,0.6,0.1,0.9,0.4s0.4,0.5,0.4,0.9s-0.1,0.6-0.4,0.8c-0.2,0.2-0.5,0.3-0.9,0.3
		C77.9,3.7,77.6,3.6,77.4,3.4z"/>
	<path class="st0" d="M79.8,12.8l1-1.1c0.8,0.8,1.6,1.2,2.4,1.2c0.4,0,0.7-0.1,1-0.3c0.3-0.2,0.4-0.4,0.4-0.7c0-0.2-0.1-0.4-0.3-0.6
		s-0.5-0.3-0.9-0.5l-0.9-0.4c-0.8-0.3-1.3-0.7-1.7-1.1C80.5,9,80.3,8.6,80.3,8c0-0.8,0.3-1.3,0.8-1.8c0.6-0.4,1.3-0.7,2.1-0.7
		c1.2,0,2.2,0.4,2.9,1.3l-1,1.1c-0.5-0.6-1.2-0.9-2-0.9c-0.8,0-1.2,0.3-1.2,0.8c0,0.2,0.1,0.4,0.2,0.5c0.2,0.1,0.5,0.3,0.9,0.5
		l0.8,0.3c0.8,0.3,1.4,0.7,1.8,1.1c0.4,0.4,0.5,0.9,0.5,1.5c0,0.8-0.3,1.5-0.9,1.9c-0.6,0.4-1.3,0.7-2.3,0.7
		C81.8,14.4,80.7,13.9,79.8,12.8z"/>
	<path class="st0" d="M92.5,12.7v1.5c-0.6,0.1-1.1,0.2-1.5,0.2c-1,0-1.8-0.3-2.3-0.7c-0.5-0.5-0.8-1.2-0.8-2.2V7.3h-1.4V5.7h1.4V3.5
		h1.8v2.2h2.5v1.6h-2.5v4c0,0.5,0.1,0.9,0.4,1.1c0.3,0.2,0.7,0.3,1.3,0.3C91.6,12.8,91.9,12.7,92.5,12.7z"/>
	<path class="st0" d="M100,8.9v5.3h-0.9V9c0-0.7-0.2-1.3-0.6-1.8c-0.4-0.5-1-0.7-1.7-0.7c-0.7,0-1.3,0.2-1.8,0.7
		c-0.5,0.5-0.7,1.1-0.7,1.8v5.2h-0.9V5.9h0.8V7c0.6-0.9,1.5-1.3,2.7-1.3c0.9,0,1.7,0.3,2.2,0.9C99.7,7.2,100,8,100,8.9z"/>
	<path class="st0" d="M108.2,5.9h0.8v7.6c0,1.2-0.4,2.2-1.1,2.9c-0.7,0.7-1.7,1.1-2.9,1.1c-1.6,0-2.8-0.5-3.8-1.6l0.5-0.6
		c0.9,0.9,2,1.4,3.3,1.4c1,0,1.7-0.3,2.3-0.8c0.6-0.6,0.9-1.3,0.9-2.3v-1.1c-0.3,0.5-0.8,1-1.4,1.3c-0.6,0.3-1.3,0.5-2,0.5
		c-1.2,0-2.1-0.4-2.9-1.2c-0.8-0.8-1.2-1.8-1.2-3s0.4-2.2,1.2-3c0.8-0.8,1.8-1.2,2.9-1.2c0.7,0,1.4,0.2,2,0.5s1.1,0.8,1.4,1.3
		L108.2,5.9L108.2,5.9z M108.1,9.9c0-1.1-0.3-1.9-0.9-2.5c-0.6-0.6-1.4-0.9-2.3-0.9c-1,0-1.8,0.3-2.4,1c-0.6,0.7-1,1.5-1,2.4
		c0,1,0.3,1.8,1,2.4c0.6,0.7,1.4,1,2.4,1c0.9,0,1.7-0.3,2.3-0.9C107.8,11.9,108.1,11,108.1,9.9z"/>
	<path class="st0" d="M21.1,3.4V0.8h0.2v2.7H21.1L21.1,3.4z M23,3.2c-0.1,0.1-0.2,0.2-0.3,0.2c-0.1,0-0.2,0.1-0.3,0.1
		c-0.2,0-0.4-0.1-0.5-0.2c-0.1-0.1-0.2-0.3-0.2-0.5V1.7H22v1c0,0.2,0,0.4,0.1,0.5c0.1,0.1,0.2,0.1,0.3,0.1c0.1,0,0.2,0,0.3-0.1
		C22.8,3.1,22.9,3,23,2.9V1.7h0.2v1.7H23L23,3.2L23,3.2z M23.4,3.4l0.7-0.9l-0.7-0.9h0.2l0.6,0.7l0.6-0.7H25l-0.7,0.9l0.7,0.9h-0.3
		l-0.6-0.8l-0.6,0.8H23.4L23.4,3.4z M26.5,3.2c-0.1,0.1-0.2,0.2-0.3,0.2c-0.1,0-0.2,0.1-0.3,0.1c-0.2,0-0.4-0.1-0.5-0.2
		c-0.1-0.1-0.2-0.3-0.2-0.5V1.7h0.2v1c0,0.2,0,0.4,0.1,0.5s0.2,0.1,0.3,0.1c0.1,0,0.2,0,0.3-0.1c0.1-0.1,0.2-0.1,0.3-0.3V1.7h0.2
		v1.7h-0.2L26.5,3.2L26.5,3.2z M27.2,3.4V1.7h0.2v0.4c0.1-0.2,0.2-0.3,0.3-0.4c0.1-0.1,0.2-0.1,0.3-0.1c0.1,0,0.1,0,0.1,0
		c0,0,0.1,0.1,0.2,0.1L28.2,2c-0.1,0-0.1-0.1-0.1-0.1s-0.1,0-0.1,0c-0.1,0-0.2,0-0.2,0.1s-0.2,0.2-0.3,0.4v1.1L27.2,3.4L27.2,3.4z
		 M29,3.1l-0.6,1.2h0.2l1.3-2.6h-0.2l-0.6,1.2l-0.6-1.2h-0.2L29,3.1L29,3.1z M31.7,3.5c-0.2,0-0.4,0-0.4,0.1
		c-0.1,0.1-0.1,0.1-0.1,0.3c0,0.1,0,0.2,0.1,0.2c0.1,0.1,0.2,0.1,0.4,0.1c0.2,0,0.4,0,0.5-0.1c0.1-0.1,0.1-0.1,0.1-0.3
		c0-0.1,0-0.2-0.1-0.2C32,3.5,31.9,3.5,31.7,3.5L31.7,3.5z M31.2,2.3c0,0.1,0,0.2,0.1,0.3c0.1,0.1,0.2,0.1,0.3,0.1s0.2,0,0.3-0.1
		c0.1-0.1,0.1-0.2,0.1-0.3s0-0.2-0.1-0.3s-0.2-0.1-0.3-0.1s-0.2,0-0.3,0.1S31.2,2.2,31.2,2.3L31.2,2.3z M31.4,2.9
		c-0.1-0.1-0.3-0.1-0.3-0.2C31,2.5,31,2.4,31,2.3c0-0.1,0-0.2,0.1-0.3c0.1-0.1,0.1-0.2,0.2-0.2c0,0,0.1-0.1,0.2-0.1
		c0.1,0,0.2,0,0.3,0h0.7v0.2h-0.4C32.2,1.9,32.2,2,32.3,2c0,0.1,0,0.1,0,0.2c0,0.2,0,0.3-0.1,0.4c-0.1,0.1-0.2,0.2-0.4,0.2
		c0,0-0.1,0-0.1,0c-0.2,0-0.3,0.1-0.3,0.2c0,0.1,0.1,0.1,0.4,0.2h0c0.3,0,0.5,0.1,0.6,0.1s0.1,0.2,0.1,0.3c0,0.2-0.1,0.3-0.2,0.4
		c-0.1,0.1-0.3,0.1-0.6,0.1c-0.2,0-0.4,0-0.6-0.1C31,4.1,30.9,4,30.9,3.8c0-0.1,0-0.2,0.1-0.3c0.1-0.1,0.2-0.1,0.3-0.1
		c-0.1,0-0.1,0-0.2-0.1c0,0-0.1-0.1-0.1-0.1s0-0.1,0.1-0.2C31.3,3,31.3,2.9,31.4,2.9L31.4,2.9z M32.7,1.1V0.8h0.2v0.3H32.7L32.7,1.1
		z M32.7,3.4V1.7h0.2v1.7H32.7L32.7,3.4z M33.4,3.4V1.8h-0.3V1.7h0.3V1.5c0-0.3,0-0.4,0.1-0.6c0.1-0.1,0.3-0.2,0.5-0.2
		c0,0,0.1,0,0.1,0c0,0,0.1,0,0.1,0v0.2c0,0-0.1,0-0.1,0s-0.1,0-0.1,0c-0.1,0-0.3,0-0.3,0.1c-0.1,0.1-0.1,0.2-0.1,0.4v0.2H34v0.2
		h-0.3v1.6H33.4L33.4,3.4z M34.5,3V1.8H35V1.7h-0.5V1.1h0l-0.1,0.2v0.4h-0.4v0.2h0.4V3c0,0.2,0,0.3,0.1,0.4s0.2,0.1,0.3,0.1
		c0.1,0,0.1,0,0.2,0s0.1,0,0.2-0.1V3.2c-0.1,0-0.1,0.1-0.2,0.1c0,0-0.1,0-0.1,0c-0.1,0-0.1,0-0.2-0.1C34.5,3.2,34.5,3.1,34.5,3
		L34.5,3z M36.2,3.4V1.7h0.2v0.4c0.1-0.2,0.2-0.3,0.3-0.4s0.2-0.1,0.3-0.1c0.1,0,0.1,0,0.1,0s0.1,0.1,0.2,0.1L37.2,2
		c-0.1,0-0.1-0.1-0.1-0.1c0,0-0.1,0-0.1,0c-0.1,0-0.2,0-0.2,0.1s-0.2,0.2-0.3,0.4v1.1L36.2,3.4L36.2,3.4z M38.9,3.2
		c-0.1,0.1-0.2,0.1-0.3,0.2c-0.1,0-0.2,0.1-0.3,0.1c-0.3,0-0.5-0.1-0.6-0.3c-0.2-0.2-0.2-0.4-0.2-0.7c0-0.3,0.1-0.5,0.2-0.6
		c0.1-0.2,0.3-0.2,0.6-0.2c0.2,0,0.4,0.1,0.5,0.2C38.9,2,39,2.3,39,2.5v0h-1.4v0c0,0.2,0.1,0.4,0.2,0.5c0.1,0.1,0.3,0.2,0.5,0.2
		c0.1,0,0.2,0,0.3-0.1c0.1,0,0.2-0.1,0.3-0.2L38.9,3.2L38.9,3.2z M37.6,2.3h1.1c0-0.1-0.1-0.3-0.2-0.4c-0.1-0.1-0.2-0.1-0.4-0.1
		c-0.1,0-0.3,0-0.4,0.1C37.7,2,37.7,2.2,37.6,2.3L37.6,2.3z M39.9,3.5c-0.2,0-0.4,0-0.4,0.1c-0.1,0.1-0.1,0.1-0.1,0.3
		c0,0.1,0,0.2,0.1,0.2c0.1,0.1,0.2,0.1,0.4,0.1s0.4,0,0.5-0.1c0.1-0.1,0.1-0.1,0.1-0.3c0-0.1,0-0.2-0.1-0.2
		C40.3,3.5,40.1,3.5,39.9,3.5L39.9,3.5z M39.5,2.3c0,0.1,0,0.2,0.1,0.3c0.1,0.1,0.2,0.1,0.3,0.1c0.1,0,0.2,0,0.3-0.1
		s0.1-0.2,0.1-0.3s0-0.2-0.1-0.3s-0.2-0.1-0.3-0.1c-0.1,0-0.2,0-0.3,0.1C39.5,2.1,39.5,2.2,39.5,2.3L39.5,2.3z M39.7,2.9
		c-0.1-0.1-0.3-0.1-0.3-0.2s-0.1-0.2-0.1-0.4c0-0.1,0-0.2,0.1-0.3c0.1-0.1,0.1-0.2,0.2-0.2c0,0,0.1-0.1,0.2-0.1c0.1,0,0.2,0,0.3,0
		h0.7v0.2h-0.4C40.4,1.9,40.5,2,40.5,2c0,0.1,0,0.1,0,0.2c0,0.2,0,0.3-0.1,0.4S40.2,2.8,40,2.9c0,0-0.1,0-0.1,0
		c-0.2,0-0.3,0.1-0.3,0.2c0,0.1,0.1,0.1,0.4,0.2h0c0.3,0,0.5,0.1,0.6,0.1s0.1,0.2,0.1,0.3c0,0.2-0.1,0.3-0.2,0.4
		c-0.1,0.1-0.3,0.1-0.6,0.1c-0.2,0-0.4,0-0.6-0.1c-0.1-0.1-0.2-0.2-0.2-0.3c0-0.1,0-0.2,0.1-0.3c0.1-0.1,0.2-0.1,0.3-0.1
		c-0.1,0-0.1,0-0.2-0.1c0,0-0.1-0.1-0.1-0.1s0-0.1,0.1-0.2C39.5,3,39.6,2.9,39.7,2.9L39.7,2.9z M41,1.1V0.8h0.2v0.3H41L41,1.1z
		 M41,3.4V1.7h0.2v1.7H41L41,3.4z M41.6,3.1c0.1,0.1,0.2,0.1,0.3,0.1s0.2,0,0.3,0c0.1,0,0.2,0,0.3-0.1c0.1-0.1,0.1-0.1,0.1-0.2
		c0-0.1-0.1-0.3-0.4-0.3c-0.1,0-0.1,0-0.1-0.1c-0.1,0-0.2-0.1-0.3-0.2c-0.1-0.1-0.1-0.2-0.1-0.3c0-0.1,0-0.3,0.1-0.3
		c0.1-0.1,0.2-0.1,0.4-0.1c0.1,0,0.1,0,0.2,0c0.1,0,0.2,0.1,0.3,0.1V2c-0.1-0.1-0.2-0.1-0.3-0.1c-0.1,0-0.2,0-0.2,0
		c-0.1,0-0.2,0-0.3,0.1c-0.1,0.1-0.1,0.1-0.1,0.2c0,0.1,0,0.1,0.1,0.2c0.1,0.1,0.2,0.1,0.3,0.2c0.2,0.1,0.3,0.1,0.4,0.2
		c0.1,0.1,0.1,0.2,0.1,0.3c0,0.1-0.1,0.3-0.1,0.4c-0.1,0.1-0.3,0.1-0.4,0.1c-0.1,0-0.2,0-0.3,0c-0.1,0-0.2-0.1-0.3-0.1L41.6,3.1
		L41.6,3.1z M43.3,3c0,0.1,0,0.2,0,0.2c0,0,0.1,0.1,0.2,0.1c0,0,0.1,0,0.1,0c0,0,0.1,0,0.2-0.1v0.2c-0.1,0-0.1,0-0.2,0.1
		c-0.1,0-0.1,0-0.2,0c-0.1,0-0.3,0-0.3-0.1c-0.1-0.1-0.1-0.2-0.1-0.4V1.8h-0.4V1.7h0.4V1.3l0.1-0.2h0v0.6h0.5v0.2h-0.5L43.3,3
		L43.3,3z M44.1,3.4V1.7h0.2v0.4c0.1-0.2,0.2-0.3,0.3-0.4c0.1-0.1,0.2-0.1,0.3-0.1c0.1,0,0.1,0,0.1,0c0,0,0.1,0.1,0.2,0.1L45.1,2
		c-0.1,0-0.1-0.1-0.1-0.1s-0.1,0-0.1,0c-0.1,0-0.2,0-0.2,0.1s-0.2,0.2-0.3,0.4v1.1L44.1,3.4L44.1,3.4z M45.9,3.1l-0.6,1.2h0.2
		l1.3-2.6h-0.2L46,2.9l-0.6-1.2h-0.2L45.9,3.1z"/>
	<path class="st1" d="M4.1,14c-1.1,0.3-1.9,0.3-2.7-0.5c-0.9-0.9-1.1-2.2-0.3-3c1.2-1.3,3.7-1.3,6.3-1.2c0.1,0.6,0.6,1.1,1.2,1.2
		c0.2,2.6,0.3,5-0.9,6.3c-0.8,0.8-2.1,0.7-3-0.2C3.9,15.8,3.8,15.1,4.1,14z"/>
	<path class="st2" d="M13.7,13.9c1.1,0.3,1.9,0.3,2.7-0.5c0.9-0.9,1.1-2.2,0.3-3c-1.2-1.3-3.7-1.3-6.4-1.2c-0.1,0.6-0.5,1.1-1.2,1.2
		c-0.2,2.6-0.3,5,0.9,6.3c0.8,0.8,2.1,0.7,3-0.2C13.9,15.8,14,15,13.7,13.9z"/>
	<path class="st3" d="M4.1,4.2C3,3.8,2.2,3.9,1.4,4.7c-0.9,0.9-1.1,2.2-0.3,3C2.3,9,4.7,9,7.4,8.9C7.4,8.2,8,7.7,8.6,7.6
		c0.2-2.6,0.3-5-0.9-6.3C7,0.6,5.6,0.6,4.7,1.5C3.9,2.3,3.8,3.1,4.1,4.2z"/>
	<path class="st4" d="M13.7,4.2c1.1-0.3,1.9-0.3,2.7,0.5c0.9,0.9,1.1,2.2,0.3,3C15.5,9,13,9,10.3,8.9c-0.1-0.6-0.5-1.1-1.2-1.2
		C9,5,8.9,2.6,10.1,1.4c0.8-0.8,2.1-0.7,3,0.2C13.9,2.3,14,3.1,13.7,4.2z"/>
</g>
</svg>
